<?xml version="1.0" encoding="UTF-8" standalone="no"?>
<!DOCTYPE svg PUBLIC "-//W3C//DTD SVG 1.1//EN" "http://www.w3.org/Graphics/SVG/1.1/DTD/svg11.dtd">
<svg xmlns="http://www.w3.org/2000/svg" version="1.1" viewBox="0.00 0.00 512.00 512.00">
<g stroke-width="2.00" fill="none" stroke-linecap="butt">
<path stroke="#fff7e4" vector-effect="non-scaling-stroke" d="
  M 249.19 0.81
  L 248.35 2.05
  Q 248.08 2.45 248.08 2.94
  Q 247.99 42.29 248.08 81.75
  Q 248.09 83.61 248.12 85.45
  C 248.23 91.17 252.77 94.97 258.25 94.95
  Q 277.81 94.86 297.11 94.95
  Q 299.36 94.97 301.85 95.03
  Q 302.22 95.04 302.22 95.42
  L 301.91 141.22"
/>
<path stroke="#fff2d7" vector-effect="non-scaling-stroke" d="
  M 301.91 141.22
  Q 296.58 133.45 288.23 131.64
  C 277.63 129.35 267.35 134.99 263.63 144.95
  Q 261.85 149.72 262.19 158.57
  Q 262.42 164.35 262.19 170.77
  Q 261.97 177.11 263.52 181.52
  C 269.28 197.81 290.72 200.50 300.81 186.97"
/>
<path stroke="#fff7e4" vector-effect="non-scaling-stroke" d="
  M 300.81 186.97
  Q 301.13 186.84 301.44 186.86
  Q 301.97 186.88 301.97 187.42
  L 302.00 278.80"
/>
<path stroke="#c5d8f5" vector-effect="non-scaling-stroke" d="
  M 302.00 278.80
  Q 295.51 281.22 291.75 283.04
  Q 257.09 299.84 238.81 331.81
  Q 214.01 375.16 227.49 425.00"
/>
<path stroke="#fff2d7" vector-effect="non-scaling-stroke" d="
  M 156.50 114.28
  C 164.33 110.29 168.55 102.64 168.43 93.97
  Q 168.33 86.92 168.51 80.20
  Q 168.71 72.30 167.51 67.65
  C 163.80 53.31 145.81 46.75 133.79 56.50
  Q 125.38 63.33 125.54 74.66
  Q 125.65 81.55 125.48 88.20
  Q 125.27 96.53 126.46 100.91
  C 129.86 113.49 144.41 120.44 156.50 114.28"
/>
<path stroke="#fff2d7" vector-effect="non-scaling-stroke" d="
  M 93.51 69.15
  Q 93.52 86.88 93.47 107.24
  C 93.46 110.29 94.56 112.84 97.22 114.42
  C 101.34 116.87 106.81 115.09 108.37 110.57
  Q 109.05 108.60 109.02 106.25
  Q 108.79 82.65 109.01 62.57
  Q 109.12 53.04 100.42 52.83
  Q 95.76 52.71 90.86 52.89
  C 80.54 53.27 80.90 69.12 92.63 68.33
  Q 93.51 68.27 93.51 69.15"
/>
<path stroke="#fff2d7" vector-effect="non-scaling-stroke" d="
  M 187.23 69.10
  Q 187.25 89.05 187.21 107.66
  C 187.18 118.12 202.76 118.27 202.71 107.06
  Q 202.63 87.65 202.76 63.19
  C 202.79 57.67 201.15 53.18 194.80 52.89
  Q 190.34 52.70 185.20 52.83
  C 174.21 53.11 174.31 68.72 186.47 68.36
  Q 187.23 68.34 187.23 69.10"
/>
<path stroke="#fff2d7" vector-effect="non-scaling-stroke" d="
  M 116.30 181.39
  Q 117.48 178.46 117.47 175.25
  Q 117.46 166.08 117.59 155.40
  C 117.69 147.19 115.59 140.26 109.08 135.48
  C 97.44 126.94 81.35 131.30 76.04 145.12
  Q 74.50 149.13 74.69 156.61
  Q 74.88 163.80 74.70 171.71
  Q 74.57 177.62 76.17 181.89
  C 79.30 190.29 87.75 196.02 96.58 195.62
  Q 110.84 194.96 116.30 181.39"
/>
<path stroke="#fff2d7" vector-effect="non-scaling-stroke" d="
  M 139.94 147.49
  A 0.36 0.35 87.1 0 1 140.33 147.85
  Q 140.27 166.85 140.32 186.49
  C 140.35 197.43 155.91 197.45 155.81 186.29
  Q 155.63 164.82 155.81 141.03
  C 155.85 135.78 153.03 131.97 147.53 132.04
  Q 143.52 132.08 139.30 131.98
  C 126.74 131.68 127.65 148.75 139.94 147.49"
/>
<path stroke="#fff2d7" vector-effect="non-scaling-stroke" d="
  M 187.26 148.35
  Q 187.22 168.73 187.22 187.04
  C 187.22 191.69 191.38 195.30 195.92 194.62
  C 200.93 193.86 202.75 190.09 202.74 185.46
  Q 202.68 162.67 202.72 140.25
  C 202.73 135.55 199.55 132.16 194.67 132.07
  Q 189.76 131.97 184.84 132.05
  C 175.71 132.20 174.29 144.59 183.03 147.26
  C 184.10 147.59 185.30 147.49 186.42 147.51
  Q 187.26 147.51 187.26 148.35"
/>
<path stroke="#fff2d7" vector-effect="non-scaling-stroke" d="
  M 234.02 148.26
  Q 234.00 167.98 234.02 186.67
  C 234.03 194.45 243.81 197.78 248.16 191.31
  Q 249.47 189.36 249.47 187.61
  Q 249.53 163.55 249.50 139.95
  C 249.50 135.35 246.07 131.97 241.39 132.04
  Q 237.53 132.10 233.26 131.97
  C 220.69 131.57 221.24 148.38 233.19 147.50
  Q 234.02 147.44 234.02 148.26"
/>
<path stroke="#fff2d7" vector-effect="non-scaling-stroke" d="
  M 239.53 269.79
  C 251.09 268.18 257.97 259.08 258.14 247.60
  Q 258.30 237.09 258.13 227.27
  Q 257.91 215.15 248.26 208.79
  C 242.68 205.10 234.74 204.28 228.70 206.98
  Q 215.19 213.03 215.32 228.53
  Q 215.37 235.25 215.22 242.15
  Q 215.02 251.02 216.55 255.59
  C 219.74 265.12 229.45 271.18 239.53 269.79"
/>
<path stroke="#fff2d7" vector-effect="non-scaling-stroke" d="
  M 155.14 270.81
  Q 168.20 264.91 168.41 250.01
  Q 168.55 240.23 168.34 229.13
  C 168.15 219.12 161.41 210.32 151.46 208.31
  C 139.56 205.91 129.07 213.00 126.20 224.50
  Q 125.26 228.24 125.51 234.00
  C 125.84 241.55 124.65 250.76 126.59 257.33
  C 130.01 268.94 143.68 275.99 155.14 270.81"
/>
<path stroke="#fff2d7" vector-effect="non-scaling-stroke" d="
  M 93.45 224.85
  Q 93.55 242.21 93.48 263.20
  C 93.46 266.96 95.35 270.00 99.04 271.15
  C 102.59 272.26 106.65 270.47 108.11 267.09
  Q 109.05 264.92 109.02 261.61
  Q 108.78 239.32 109.03 217.82
  C 109.09 212.75 106.39 208.92 100.85 208.82
  Q 97.33 208.75 92.82 208.68
  C 80.03 208.49 80.48 225.05 92.78 224.23
  Q 93.44 224.19 93.45 224.85"
/>
<path stroke="#fff2d7" vector-effect="non-scaling-stroke" d="
  M 187.24 224.99
  Q 187.24 245.12 187.22 263.67
  C 187.21 273.89 202.60 274.06 202.65 263.60
  Q 202.76 240.08 202.66 217.13
  Q 202.64 211.51 198.09 209.51
  C 194.89 208.10 190.25 208.89 186.71 208.70
  C 182.19 208.45 177.80 210.63 177.26 215.43
  Q 176.61 221.25 182.10 223.71
  C 183.39 224.29 185.07 224.27 186.49 224.25
  Q 187.24 224.24 187.24 224.99"
/>
<path stroke="#c0c7ee" vector-effect="non-scaling-stroke" d="
  M 343.25 271.20
  Q 334.14 271.14 324.45 273.17"
/>
<path stroke="#c5d7ee" vector-effect="non-scaling-stroke" d="
  M 324.45 273.17
  Q 314.09 274.36 302.00 278.80"
/>
<path stroke="#fff1d0" vector-effect="non-scaling-stroke" d="
  M 300.81 186.97
  Q 304.92 181.32 304.96 176.00
  Q 305.04 163.88 304.98 151.75
  Q 304.95 146.36 301.91 141.22"
/>
<path stroke="#7bce7b" vector-effect="non-scaling-stroke" d="
  M 408.76 55.20
  Q 400.91 57.81 393.39 55.14"
/>
<path stroke="#fff2d7" vector-effect="non-scaling-stroke" d="
  M 152.92 73.17
  A 5.70 5.70 0.0 0 0 147.22 67.47
  L 146.76 67.47
  A 5.70 5.70 0.0 0 0 141.06 73.17
  L 141.06 95.27
  A 5.70 5.70 0.0 0 0 146.76 100.97
  L 147.22 100.97
  A 5.70 5.70 0.0 0 0 152.92 95.27
  L 152.92 73.17"
/>
<path stroke="#7bce7b" vector-effect="non-scaling-stroke" d="
  M 444.84 157.45
  Q 452.64 160.42 460.25 157.48"
/>
<path stroke="#81b8c0" vector-effect="non-scaling-stroke" d="
  M 408.71 290.19
  L 393.38 281.87"
/>
<path stroke="#fff2d7" vector-effect="non-scaling-stroke" d="
  M 102.01 152.24
  A 5.67 5.67 0.0 0 0 96.34 146.57
  L 95.92 146.57
  A 5.67 5.67 0.0 0 0 90.25 152.24
  L 90.25 174.50
  A 5.67 5.67 0.0 0 0 95.92 180.17
  L 96.34 180.17
  A 5.67 5.67 0.0 0 0 102.01 174.50
  L 102.01 152.24"
/>
<path stroke="#fff2d7" vector-effect="non-scaling-stroke" d="
  M 289.5094 152.2603
  A 5.67 5.67 0.0 0 0 283.8493 146.5804
  L 283.4293 146.5797
  A 5.67 5.67 0.0 0 0 277.7494 152.2398
  L 277.7106 174.4797
  A 5.67 5.67 0.0 0 0 283.3707 180.1596
  L 283.7907 180.1603
  A 5.67 5.67 0.0 0 0 289.4706 174.5002
  L 289.5094 152.2603"
/>
<path stroke="#fff2d7" vector-effect="non-scaling-stroke" d="
  M 242.6323 226.6590
  A 5.73 5.73 0.0 0 0 236.8723 220.9591
  L 236.4324 220.9614
  A 5.73 5.73 0.0 0 0 230.7324 226.7213
  L 230.8477 248.7410
  A 5.73 5.73 0.0 0 0 236.6077 254.4409
  L 237.0476 254.4386
  A 5.73 5.73 0.0 0 0 242.7476 248.6787
  L 242.6323 226.6590"
/>
<path stroke="#fff2d7" vector-effect="non-scaling-stroke" d="
  M 152.9007 229.0597
  A 5.70 5.70 0.0 0 0 147.1907 223.3696
  L 146.7507 223.3704
  A 5.70 5.70 0.0 0 0 141.0607 229.0803
  L 141.0993 251.2203
  A 5.70 5.70 0.0 0 0 146.8093 256.9104
  L 147.2493 256.9096
  A 5.70 5.70 0.0 0 0 152.9393 251.1997
  L 152.9007 229.0597"
/>
<path stroke="#86a8ff" vector-effect="non-scaling-stroke" d="
  M 323.77 510.35
  Q 341.63 506.65 356.16 499.41
  Q 386.35 484.38 404.66 455.48
  C 430.48 414.71 429.09 361.21 400.57 321.84
  Q 372.89 283.63 324.45 273.17"
/>
<path stroke="#86c8c0" vector-effect="non-scaling-stroke" d="
  M 263.79 482.24
  L 249.28 466.86"
/>
<path stroke="#c3ccc2" vector-effect="non-scaling-stroke" d="
  M 307.53 385.17
  Q 303.31 387.46 301.47 391.13
  Q 300.18 393.69 300.20 397.41
  Q 300.29 419.66 300.18 441.68
  C 300.15 446.75 302.44 451.03 307.03 453.31
  Q 309.43 454.50 316.15 454.51
  Q 327.60 454.51 337.83 454.62"
/>
<path stroke="#c3c4a0" vector-effect="non-scaling-stroke" d="
  M 337.83 454.62
  Q 357.05 454.88 374.50 454.66
  C 381.76 454.57 387.07 449.38 387.04 442.08
  Q 386.94 419.97 387.00 396.40
  C 387.01 392.96 385.60 389.53 382.95 387.30
  Q 382.30 386.75 379.53 384.97"
/>
<path stroke="#c5dbff" vector-effect="non-scaling-stroke" d="
  M 379.53 384.97
  Q 379.51 370.39 379.30 356.25
  Q 379.13 344.84 372.87 336.36
  Q 363.40 323.53 347.85 321.50
  C 339.62 320.42 330.29 322.66 323.53 327.29
  Q 307.67 338.19 307.63 358.25
  Q 307.60 371.86 307.53 385.17"
/>
<path stroke="#fde8a0" vector-effect="non-scaling-stroke" d="
  M 379.53 384.97
  Q 377.97 384.67 376.35 384.43
  Q 374.85 384.20 373.14 384.22
  Q 368.47 384.28 364.13 384.22"
/>
<path stroke="#c5dbff" vector-effect="non-scaling-stroke" d="
  M 364.13 384.22
  Q 364.04 371.20 363.97 358.61
  Q 363.89 343.78 351.81 338.44
  C 340.32 333.36 326.79 339.96 323.75 351.63
  Q 323.02 354.45 323.01 366.93
  Q 323.00 375.64 323.02 384.49"
/>
<path stroke="#fdf0c2" vector-effect="non-scaling-stroke" d="
  M 323.02 384.49
  Q 314.78 383.92 307.53 385.17"
/>
<path stroke="#fad962" vector-effect="non-scaling-stroke" d="
  M 337.83 454.62
  Q 345.71 449.39 345.76 441.76
  Q 345.78 437.65 345.43 435.78"
/>
<path stroke="#fde8a0" vector-effect="non-scaling-stroke" d="
  M 345.43 435.78
  Q 348.82 434.64 350.31 431.82
  Q 351.31 429.94 351.29 427.61
  Q 351.24 419.19 351.27 410.97
  Q 351.28 408.68 350.19 406.82
  Q 348.64 404.16 345.39 403.14"
/>
<path stroke="#fad962" vector-effect="non-scaling-stroke" d="
  M 345.39 403.14
  Q 345.99 399.65 345.67 395.75
  Q 345.06 388.38 337.10 384.29"
/>
<path stroke="#fdf0c2" vector-effect="non-scaling-stroke" d="
  M 345.39 403.14
  C 338.80 402.52 335.58 406.48 335.76 412.53
  Q 335.94 418.96 335.72 425.25
  C 335.49 431.77 337.97 436.32 345.43 435.78"
/>
<path stroke="#c3c4a0" vector-effect="non-scaling-stroke" d="
  M 364.13 384.22
  L 337.10 384.29"
/>
<path stroke="#c3ccc2" vector-effect="non-scaling-stroke" d="
  M 337.10 384.29
  L 323.02 384.49"
/>
<path stroke="#7bce7b" vector-effect="non-scaling-stroke" d="
  M 181.00 466.89
  Q 182.31 470.81 182.44 472.34
  Q 182.84 477.31 181.12 482.26"
/>
</g>
<path fill="#fff8ea" d="
  M 48.89 0.00
  L 246.25 0.00
  L 249.19 0.81
  L 248.35 2.05
  Q 248.08 2.45 248.08 2.94
  Q 247.99 42.29 248.08 81.75
  Q 248.09 83.61 248.12 85.45
  C 248.23 91.17 252.77 94.97 258.25 94.95
  Q 277.81 94.86 297.11 94.95
  Q 299.36 94.97 301.85 95.03
  Q 302.22 95.04 302.22 95.42
  L 301.91 141.22
  Q 296.58 133.45 288.23 131.64
  C 277.63 129.35 267.35 134.99 263.63 144.95
  Q 261.85 149.72 262.19 158.57
  Q 262.42 164.35 262.19 170.77
  Q 261.97 177.11 263.52 181.52
  C 269.28 197.81 290.72 200.50 300.81 186.97
  Q 301.13 186.84 301.44 186.86
  Q 301.97 186.88 301.97 187.42
  L 302.00 278.80
  Q 295.51 281.22 291.75 283.04
  Q 257.09 299.84 238.81 331.81
  Q 214.01 375.16 227.49 425.00
  Q 140.81 425.01 54.11 424.99
  Q 47.66 424.99 45.14 423.60
  Q 40.48 421.02 40.48 415.24
  Q 40.45 217.32 40.46 10.15
  C 40.46 4.79 43.47 1.14 48.89 0.00
  Z
  M 156.50 114.28
  C 164.33 110.29 168.55 102.64 168.43 93.97
  Q 168.33 86.92 168.51 80.20
  Q 168.71 72.30 167.51 67.65
  C 163.80 53.31 145.81 46.75 133.79 56.50
  Q 125.38 63.33 125.54 74.66
  Q 125.65 81.55 125.48 88.20
  Q 125.27 96.53 126.46 100.91
  C 129.86 113.49 144.41 120.44 156.50 114.28
  Z
  M 93.51 69.15
  Q 93.52 86.88 93.47 107.24
  C 93.46 110.29 94.56 112.84 97.22 114.42
  C 101.34 116.87 106.81 115.09 108.37 110.57
  Q 109.05 108.60 109.02 106.25
  Q 108.79 82.65 109.01 62.57
  Q 109.12 53.04 100.42 52.83
  Q 95.76 52.71 90.86 52.89
  C 80.54 53.27 80.90 69.12 92.63 68.33
  Q 93.51 68.27 93.51 69.15
  Z
  M 187.23 69.10
  Q 187.25 89.05 187.21 107.66
  C 187.18 118.12 202.76 118.27 202.71 107.06
  Q 202.63 87.65 202.76 63.19
  C 202.79 57.67 201.15 53.18 194.80 52.89
  Q 190.34 52.70 185.20 52.83
  C 174.21 53.11 174.31 68.72 186.47 68.36
  Q 187.23 68.34 187.23 69.10
  Z
  M 116.30 181.39
  Q 117.48 178.46 117.47 175.25
  Q 117.46 166.08 117.59 155.40
  C 117.69 147.19 115.59 140.26 109.08 135.48
  C 97.44 126.94 81.35 131.30 76.04 145.12
  Q 74.50 149.13 74.69 156.61
  Q 74.88 163.80 74.70 171.71
  Q 74.57 177.62 76.17 181.89
  C 79.30 190.29 87.75 196.02 96.58 195.62
  Q 110.84 194.96 116.30 181.39
  Z
  M 139.94 147.49
  A 0.36 0.35 87.1 0 1 140.33 147.85
  Q 140.27 166.85 140.32 186.49
  C 140.35 197.43 155.91 197.45 155.81 186.29
  Q 155.63 164.82 155.81 141.03
  C 155.85 135.78 153.03 131.97 147.53 132.04
  Q 143.52 132.08 139.30 131.98
  C 126.74 131.68 127.65 148.75 139.94 147.49
  Z
  M 187.26 148.35
  Q 187.22 168.73 187.22 187.04
  C 187.22 191.69 191.38 195.30 195.92 194.62
  C 200.93 193.86 202.75 190.09 202.74 185.46
  Q 202.68 162.67 202.72 140.25
  C 202.73 135.55 199.55 132.16 194.67 132.07
  Q 189.76 131.97 184.84 132.05
  C 175.71 132.20 174.29 144.59 183.03 147.26
  C 184.10 147.59 185.30 147.49 186.42 147.51
  Q 187.26 147.51 187.26 148.35
  Z
  M 234.02 148.26
  Q 234.00 167.98 234.02 186.67
  C 234.03 194.45 243.81 197.78 248.16 191.31
  Q 249.47 189.36 249.47 187.61
  Q 249.53 163.55 249.50 139.95
  C 249.50 135.35 246.07 131.97 241.39 132.04
  Q 237.53 132.10 233.26 131.97
  C 220.69 131.57 221.24 148.38 233.19 147.50
  Q 234.02 147.44 234.02 148.26
  Z
  M 239.53 269.79
  C 251.09 268.18 257.97 259.08 258.14 247.60
  Q 258.30 237.09 258.13 227.27
  Q 257.91 215.15 248.26 208.79
  C 242.68 205.10 234.74 204.28 228.70 206.98
  Q 215.19 213.03 215.32 228.53
  Q 215.37 235.25 215.22 242.15
  Q 215.02 251.02 216.55 255.59
  C 219.74 265.12 229.45 271.18 239.53 269.79
  Z
  M 155.14 270.81
  Q 168.20 264.91 168.41 250.01
  Q 168.55 240.23 168.34 229.13
  C 168.15 219.12 161.41 210.32 151.46 208.31
  C 139.56 205.91 129.07 213.00 126.20 224.50
  Q 125.26 228.24 125.51 234.00
  C 125.84 241.55 124.65 250.76 126.59 257.33
  C 130.01 268.94 143.68 275.99 155.14 270.81
  Z
  M 93.45 224.85
  Q 93.55 242.21 93.48 263.20
  C 93.46 266.96 95.35 270.00 99.04 271.15
  C 102.59 272.26 106.65 270.47 108.11 267.09
  Q 109.05 264.92 109.02 261.61
  Q 108.78 239.32 109.03 217.82
  C 109.09 212.75 106.39 208.92 100.85 208.82
  Q 97.33 208.75 92.82 208.68
  C 80.03 208.49 80.48 225.05 92.78 224.23
  Q 93.44 224.19 93.45 224.85
  Z
  M 187.24 224.99
  Q 187.24 245.12 187.22 263.67
  C 187.21 273.89 202.60 274.06 202.65 263.60
  Q 202.76 240.08 202.66 217.13
  Q 202.64 211.51 198.09 209.51
  C 194.89 208.10 190.25 208.89 186.71 208.70
  C 182.19 208.45 177.80 210.63 177.26 215.43
  Q 176.61 221.25 182.10 223.71
  C 183.39 224.29 185.07 224.27 186.49 224.25
  Q 187.24 224.24 187.24 224.99
  Z"
/>
<path fill="#fff6dd" d="
  M 249.19 0.81
  L 342.82 93.63
  A 1.45 1.44 -67.3 0 1 343.23 94.64
  L 343.25 271.20
  Q 334.14 271.14 324.45 273.17
  Q 314.09 274.36 302.00 278.80
  L 301.97 187.42
  Q 301.97 186.88 301.44 186.86
  Q 301.13 186.84 300.81 186.97
  Q 304.92 181.32 304.96 176.00
  Q 305.04 163.88 304.98 151.75
  Q 304.95 146.36 301.91 141.22
  L 302.22 95.42
  Q 302.22 95.04 301.85 95.03
  Q 299.36 94.97 297.11 94.95
  Q 277.81 94.86 258.25 94.95
  C 252.77 94.97 248.23 91.17 248.12 85.45
  Q 248.09 83.61 248.08 81.75
  Q 247.99 42.29 248.08 2.94
  Q 248.08 2.45 248.35 2.05
  L 249.19 0.81
  Z"
/>
<path fill="#75c375" d="
  M 408.76 55.20
  Q 400.91 57.81 393.39 55.14
  Q 382.92 49.66 382.08 38.75
  C 381.55 31.77 385.44 24.49 391.65 21.06
  C 404.09 14.18 420.33 22.58 420.06 37.56
  Q 419.84 48.94 409.29 54.78
  Q 408.81 55.05 408.76 55.20
  Z"
/>
<path fill="#ffebc3" d="
  M 168.43 93.97
  C 168.55 102.64 164.33 110.29 156.50 114.28
  C 144.41 120.44 129.86 113.49 126.46 100.91
  Q 125.27 96.53 125.48 88.20
  Q 125.65 81.55 125.54 74.66
  Q 125.38 63.33 133.79 56.50
  C 145.81 46.75 163.80 53.31 167.51 67.65
  Q 168.71 72.30 168.51 80.20
  Q 168.33 86.92 168.43 93.97
  Z
  M 152.92 73.17
  A 5.70 5.70 0.0 0 0 147.22 67.47
  L 146.76 67.47
  A 5.70 5.70 0.0 0 0 141.06 73.17
  L 141.06 95.27
  A 5.70 5.70 0.0 0 0 146.76 100.97
  L 147.22 100.97
  A 5.70 5.70 0.0 0 0 152.92 95.27
  L 152.92 73.17
  Z"
/>
<path fill="#ffebc3" d="
  M 92.63 68.33
  C 80.90 69.12 80.54 53.27 90.86 52.89
  Q 95.76 52.71 100.42 52.83
  Q 109.12 53.04 109.01 62.57
  Q 108.79 82.65 109.02 106.25
  Q 109.05 108.60 108.37 110.57
  C 106.81 115.09 101.34 116.87 97.22 114.42
  C 94.56 112.84 93.46 110.29 93.47 107.24
  Q 93.52 86.88 93.51 69.15
  Q 93.51 68.27 92.63 68.33
  Z"
/>
<path fill="#ffebc3" d="
  M 186.47 68.36
  C 174.31 68.72 174.21 53.11 185.20 52.83
  Q 190.34 52.70 194.80 52.89
  C 201.15 53.18 202.79 57.67 202.76 63.19
  Q 202.63 87.65 202.71 107.06
  C 202.76 118.27 187.18 118.12 187.21 107.66
  Q 187.25 89.05 187.23 69.10
  Q 187.23 68.34 186.47 68.36
  Z"
/>
<path fill="#81d881" d="
  M 408.76 55.20
  L 408.76 220.22
  Q 408.76 220.75 409.29 220.75
  L 444.24 220.75
  Q 444.78 220.75 444.78 220.21
  L 444.84 157.45
  Q 452.64 160.42 460.25 157.48
  Q 460.27 191.59 460.25 225.16
  Q 460.25 230.51 458.96 232.61
  Q 456.75 236.22 451.71 236.21
  Q 431.26 236.17 409.33 236.22
  Q 408.78 236.22 408.78 236.77
  L 408.71 290.19
  L 393.38 281.87
  L 393.39 55.14
  Q 400.91 57.81 408.76 55.20
  Z"
/>
<rect fill="#fff8ea" x="141.06" y="67.47" width="11.86" height="33.50" rx="5.70"/>
<path fill="#75c375" d="
  M 460.25 157.48
  Q 452.64 160.42 444.84 157.45
  Q 431.85 150.67 433.73 136.74
  Q 434.27 132.71 437.42 128.47
  C 448.91 113.03 473.52 122.99 471.41 142.08
  Q 470.47 150.67 462.92 155.67
  Q 461.36 156.71 460.25 157.48
  Z"
/>
<path fill="#ffebc3" d="
  M 116.30 181.39
  Q 110.84 194.96 96.58 195.62
  C 87.75 196.02 79.30 190.29 76.17 181.89
  Q 74.57 177.62 74.70 171.71
  Q 74.88 163.80 74.69 156.61
  Q 74.50 149.13 76.04 145.12
  C 81.35 131.30 97.44 126.94 109.08 135.48
  C 115.59 140.26 117.69 147.19 117.59 155.40
  Q 117.46 166.08 117.47 175.25
  Q 117.48 178.46 116.30 181.39
  Z
  M 102.01 152.24
  A 5.67 5.67 0.0 0 0 96.34 146.57
  L 95.92 146.57
  A 5.67 5.67 0.0 0 0 90.25 152.24
  L 90.25 174.50
  A 5.67 5.67 0.0 0 0 95.92 180.17
  L 96.34 180.17
  A 5.67 5.67 0.0 0 0 102.01 174.50
  L 102.01 152.24
  Z"
/>
<path fill="#ffebc3" d="
  M 301.91 141.22
  Q 304.95 146.36 304.98 151.75
  Q 305.04 163.88 304.96 176.00
  Q 304.92 181.32 300.81 186.97
  C 290.72 200.50 269.28 197.81 263.52 181.52
  Q 261.97 177.11 262.19 170.77
  Q 262.42 164.35 262.19 158.57
  Q 261.85 149.72 263.63 144.95
  C 267.35 134.99 277.63 129.35 288.23 131.64
  Q 296.58 133.45 301.91 141.22
  Z
  M 289.5094 152.2603
  A 5.67 5.67 0.0 0 0 283.8493 146.5804
  L 283.4293 146.5797
  A 5.67 5.67 0.0 0 0 277.7494 152.2398
  L 277.7106 174.4797
  A 5.67 5.67 0.0 0 0 283.3707 180.1596
  L 283.7907 180.1603
  A 5.67 5.67 0.0 0 0 289.4706 174.5002
  L 289.5094 152.2603
  Z"
/>
<path fill="#ffebc3" d="
  M 139.94 147.49
  C 127.65 148.75 126.74 131.68 139.30 131.98
  Q 143.52 132.08 147.53 132.04
  C 153.03 131.97 155.85 135.78 155.81 141.03
  Q 155.63 164.82 155.81 186.29
  C 155.91 197.45 140.35 197.43 140.32 186.49
  Q 140.27 166.85 140.33 147.85
  A 0.36 0.35 87.1 0 0 139.94 147.49
  Z"
/>
<path fill="#ffebc3" d="
  M 186.42 147.51
  C 185.30 147.49 184.10 147.59 183.03 147.26
  C 174.29 144.59 175.71 132.20 184.84 132.05
  Q 189.76 131.97 194.67 132.07
  C 199.55 132.16 202.73 135.55 202.72 140.25
  Q 202.68 162.67 202.74 185.46
  C 202.75 190.09 200.93 193.86 195.92 194.62
  C 191.38 195.30 187.22 191.69 187.22 187.04
  Q 187.22 168.73 187.26 148.35
  Q 187.26 147.51 186.42 147.51
  Z"
/>
<path fill="#ffebc3" d="
  M 233.19 147.50
  C 221.24 148.38 220.69 131.57 233.26 131.97
  Q 237.53 132.10 241.39 132.04
  C 246.07 131.97 249.50 135.35 249.50 139.95
  Q 249.53 163.55 249.47 187.61
  Q 249.47 189.36 248.16 191.31
  C 243.81 197.78 234.03 194.45 234.02 186.67
  Q 234.00 167.98 234.02 148.26
  Q 234.02 147.44 233.19 147.50
  Z"
/>
<rect fill="#fff8ea" x="90.25" y="146.57" width="11.76" height="33.60" rx="5.67"/>
<rect fill="#fff8ea" x="-5.88" y="-16.79" transform="translate(283.61,163.37) rotate(0.1)" width="11.76" height="33.58" rx="5.67"/>
<path fill="#ffebc3" d="
  M 258.14 247.60
  C 257.97 259.08 251.09 268.18 239.53 269.79
  C 229.45 271.18 219.74 265.12 216.55 255.59
  Q 215.02 251.02 215.22 242.15
  Q 215.37 235.25 215.32 228.53
  Q 215.19 213.03 228.70 206.98
  C 234.74 204.28 242.68 205.10 248.26 208.79
  Q 257.91 215.15 258.13 227.27
  Q 258.30 237.09 258.14 247.60
  Z
  M 242.6323 226.6590
  A 5.73 5.73 0.0 0 0 236.8723 220.9591
  L 236.4324 220.9614
  A 5.73 5.73 0.0 0 0 230.7324 226.7213
  L 230.8477 248.7410
  A 5.73 5.73 0.0 0 0 236.6077 254.4409
  L 237.0476 254.4386
  A 5.73 5.73 0.0 0 0 242.7476 248.6787
  L 242.6323 226.6590
  Z"
/>
<path fill="#ffebc3" d="
  M 155.14 270.81
  C 143.68 275.99 130.01 268.94 126.59 257.33
  C 124.65 250.76 125.84 241.55 125.51 234.00
  Q 125.26 228.24 126.20 224.50
  C 129.07 213.00 139.56 205.91 151.46 208.31
  C 161.41 210.32 168.15 219.12 168.34 229.13
  Q 168.55 240.23 168.41 250.01
  Q 168.20 264.91 155.14 270.81
  Z
  M 152.9007 229.0597
  A 5.70 5.70 0.0 0 0 147.1907 223.3696
  L 146.7507 223.3704
  A 5.70 5.70 0.0 0 0 141.0607 229.0803
  L 141.0993 251.2203
  A 5.70 5.70 0.0 0 0 146.8093 256.9104
  L 147.2493 256.9096
  A 5.70 5.70 0.0 0 0 152.9393 251.1997
  L 152.9007 229.0597
  Z"
/>
<path fill="#ffebc3" d="
  M 92.78 224.23
  C 80.48 225.05 80.03 208.49 92.82 208.68
  Q 97.33 208.75 100.85 208.82
  C 106.39 208.92 109.09 212.75 109.03 217.82
  Q 108.78 239.32 109.02 261.61
  Q 109.05 264.92 108.11 267.09
  C 106.65 270.47 102.59 272.26 99.04 271.15
  C 95.35 270.00 93.46 266.96 93.48 263.20
  Q 93.55 242.21 93.45 224.85
  Q 93.44 224.19 92.78 224.23
  Z"
/>
<path fill="#ffebc3" d="
  M 186.49 224.25
  C 185.07 224.27 183.39 224.29 182.10 223.71
  Q 176.61 221.25 177.26 215.43
  C 177.80 210.63 182.19 208.45 186.71 208.70
  C 190.25 208.89 194.89 208.10 198.09 209.51
  Q 202.64 211.51 202.66 217.13
  Q 202.76 240.08 202.65 263.60
  C 202.60 274.06 187.21 273.89 187.22 263.67
  Q 187.24 245.12 187.24 224.99
  Q 187.24 224.24 186.49 224.25
  Z"
/>
<rect fill="#fff8ea" x="-5.95" y="-16.74" transform="translate(236.74,237.70) rotate(-0.3)" width="11.90" height="33.48" rx="5.73"/>
<rect fill="#fff8ea" x="-5.92" y="-16.77" transform="translate(147.00,240.14) rotate(-0.1)" width="11.84" height="33.54" rx="5.70"/>
<path fill="#8198ff" d="
  M 343.25 271.20
  Q 345.42 271.22 347.74 271.31
  Q 371.63 272.26 393.41 281.96
  Q 393.47 281.99 393.43 281.93
  Q 393.40 281.90 393.38 281.87
  L 408.71 290.19
  Q 447.84 315.99 460.22 360.26
  Q 462.92 369.90 463.83 379.90
  Q 467.59 421.28 445.74 456.03
  Q 440.42 464.47 433.65 471.93
  Q 401.49 507.39 352.12 512.00
  L 334.75 512.00
  L 323.77 510.35
  Q 341.63 506.65 356.16 499.41
  Q 386.35 484.38 404.66 455.48
  C 430.48 414.71 429.09 361.21 400.57 321.84
  Q 372.89 283.63 324.45 273.17
  Q 334.14 271.14 343.25 271.20
  Z"
/>
<path fill="#8bb7ff" d="
  M 324.45 273.17
  Q 372.89 283.63 400.57 321.84
  C 429.09 361.21 430.48 414.71 404.66 455.48
  Q 386.35 484.38 356.16 499.41
  Q 341.63 506.65 323.77 510.35
  Q 290.86 504.77 264.72 482.87
  Q 264.51 482.70 264.24 482.58
  Q 263.68 482.34 263.79 482.24
  L 249.28 466.86
  Q 234.26 447.89 227.49 425.00
  Q 214.01 375.16 238.81 331.81
  Q 257.09 299.84 291.75 283.04
  Q 295.51 281.22 302.00 278.80
  Q 314.09 274.36 324.45 273.17
  Z
  M 307.53 385.17
  Q 303.31 387.46 301.47 391.13
  Q 300.18 393.69 300.20 397.41
  Q 300.29 419.66 300.18 441.68
  C 300.15 446.75 302.44 451.03 307.03 453.31
  Q 309.43 454.50 316.15 454.51
  Q 327.60 454.51 337.83 454.62
  Q 357.05 454.88 374.50 454.66
  C 381.76 454.57 387.07 449.38 387.04 442.08
  Q 386.94 419.97 387.00 396.40
  C 387.01 392.96 385.60 389.53 382.95 387.30
  Q 382.30 386.75 379.53 384.97
  Q 379.51 370.39 379.30 356.25
  Q 379.13 344.84 372.87 336.36
  Q 363.40 323.53 347.85 321.50
  C 339.62 320.42 330.29 322.66 323.53 327.29
  Q 307.67 338.19 307.63 358.25
  Q 307.60 371.86 307.53 385.17
  Z"
/>
<path fill="#ffffff" d="
  M 379.53 384.97
  Q 377.97 384.67 376.35 384.43
  Q 374.85 384.20 373.14 384.22
  Q 368.47 384.28 364.13 384.22
  Q 364.04 371.20 363.97 358.61
  Q 363.89 343.78 351.81 338.44
  C 340.32 333.36 326.79 339.96 323.75 351.63
  Q 323.02 354.45 323.01 366.93
  Q 323.00 375.64 323.02 384.49
  Q 314.78 383.92 307.53 385.17
  Q 307.60 371.86 307.63 358.25
  Q 307.67 338.19 323.53 327.29
  C 330.29 322.66 339.62 320.42 347.85 321.50
  Q 363.40 323.53 372.87 336.36
  Q 379.13 344.84 379.30 356.25
  Q 379.51 370.39 379.53 384.97
  Z"
/>
<path fill="#8bb7ff" d="
  M 364.13 384.22
  L 337.10 384.29
  L 323.02 384.49
  Q 323.00 375.64 323.01 366.93
  Q 323.02 354.45 323.75 351.63
  C 326.79 339.96 340.32 333.36 351.81 338.44
  Q 363.89 343.78 363.97 358.61
  Q 364.04 371.20 364.13 384.22
  Z"
/>
<path fill="#fad140" d="
  M 364.13 384.22
  Q 368.47 384.28 373.14 384.22
  Q 374.85 384.20 376.35 384.43
  Q 377.97 384.67 379.53 384.97
  Q 382.30 386.75 382.95 387.30
  C 385.60 389.53 387.01 392.96 387.00 396.40
  Q 386.94 419.97 387.04 442.08
  C 387.07 449.38 381.76 454.57 374.50 454.66
  Q 357.05 454.88 337.83 454.62
  Q 345.71 449.39 345.76 441.76
  Q 345.78 437.65 345.43 435.78
  Q 348.82 434.64 350.31 431.82
  Q 351.31 429.94 351.29 427.61
  Q 351.24 419.19 351.27 410.97
  Q 351.28 408.68 350.19 406.82
  Q 348.64 404.16 345.39 403.14
  Q 345.99 399.65 345.67 395.75
  Q 345.06 388.38 337.10 384.29
  L 364.13 384.22
  Z"
/>
<path fill="#fae084" d="
  M 337.10 384.29
  Q 345.06 388.38 345.67 395.75
  Q 345.99 399.65 345.39 403.14
  C 338.80 402.52 335.58 406.48 335.76 412.53
  Q 335.94 418.96 335.72 425.25
  C 335.49 431.77 337.97 436.32 345.43 435.78
  Q 345.78 437.65 345.76 441.76
  Q 345.71 449.39 337.83 454.62
  Q 327.60 454.51 316.15 454.51
  Q 309.43 454.50 307.03 453.31
  C 302.44 451.03 300.15 446.75 300.18 441.68
  Q 300.29 419.66 300.20 397.41
  Q 300.18 393.69 301.47 391.13
  Q 303.31 387.46 307.53 385.17
  Q 314.78 383.92 323.02 384.49
  L 337.10 384.29
  Z"
/>
<path fill="#ffffff" d="
  M 345.39 403.14
  Q 348.64 404.16 350.19 406.82
  Q 351.28 408.68 351.27 410.97
  Q 351.24 419.19 351.29 427.61
  Q 351.31 429.94 350.31 431.82
  Q 348.82 434.64 345.43 435.78
  C 337.97 436.32 335.49 431.77 335.72 425.25
  Q 335.94 418.96 335.76 412.53
  C 335.58 406.48 338.80 402.52 345.39 403.14
  Z"
/>
<path fill="#75c375" d="
  M 181.00 466.89
  Q 182.31 470.81 182.44 472.34
  Q 182.84 477.31 181.12 482.26
  Q 180.38 483.32 179.66 484.55
  C 175.52 491.59 167.50 494.57 159.71 493.18
  C 146.29 490.79 140.10 474.45 148.05 463.55
  C 153.63 455.90 163.58 453.38 172.09 457.64
  Q 177.88 460.55 181.00 466.89
  Z"
/>
<path fill="#81d881" d="
  M 181.00 466.89
  L 249.28 466.86
  L 263.79 482.24
  L 181.12 482.26
  Q 182.84 477.31 182.44 472.34
  Q 182.31 470.81 181.00 466.89
  Z"
/>
</svg>
