<?xml version="1.0" encoding="UTF-8" standalone="no"?>
<!DOCTYPE svg PUBLIC "-//W3C//DTD SVG 1.1//EN" "http://www.w3.org/Graphics/SVG/1.1/DTD/svg11.dtd">
<svg xmlns="http://www.w3.org/2000/svg" version="1.1" viewBox="0.00 0.00 646.00 520.00">
<g stroke-width="2.00" fill="none" stroke-linecap="butt">
<path stroke="#a2bbfb" vector-effect="non-scaling-stroke" d="
  M 285.48 74.99
  L 285.29 93.83"
/>
<path stroke="#8e9ffc" vector-effect="non-scaling-stroke" d="
  M 285.29 93.83
  C 284.92 96.37 285.14 99.45 282.92 101.29
  Q 281.78 102.23 279.93 102.94
  Q 269.29 107.01 263.90 98.12"
/>
<path stroke="#a2bbfb" vector-effect="non-scaling-stroke" d="
  M 263.90 98.12
  L 263.69 85.64"
/>
<path stroke="#a2bbfb" vector-effect="non-scaling-stroke" d="
  M 209.12 111.88
  L 209.32 131.10"
/>
<path stroke="#8e9ffc" vector-effect="non-scaling-stroke" d="
  M 209.32 131.10
  Q 209.13 133.01 208.87 134.74
  Q 208.37 138.04 205.47 139.68
  Q 199.30 143.18 192.74 140.54
  Q 188.07 138.65 187.95 134.12"
/>
<path stroke="#a2bbfb" vector-effect="non-scaling-stroke" d="
  M 187.95 134.12
  Q 188.08 128.89 187.68 123.87
  Q 187.65 123.49 187.44 123.19
  Q 187.20 122.84 187.00 122.59"
/>
<path stroke="#729dfb" vector-effect="non-scaling-stroke" d="
  M 319.97 93.06
  Q 313.64 98.87 308.75 101.33
  C 277.80 116.85 246.76 132.20 215.90 147.88"
/>
<path stroke="#7092fc" vector-effect="non-scaling-stroke" d="
  M 215.90 147.88
  Q 206.50 152.59 197.07 157.27
  Q 190.47 160.55 186.62 161.29
  C 176.60 163.23 163.46 160.86 156.86 152.41
  Q 155.54 150.73 154.04 149.17"
/>
<path stroke="#6f8cfc" vector-effect="non-scaling-stroke" d="
  M 187.95 134.12
  Q 187.70 133.29 187.71 132.95
  A 0.94 0.92 76.4 0 0 186.34 132.09
  C 181.20 134.96 182.04 139.93 186.37 142.68
  C 192.80 146.75 201.83 146.64 208.25 143.74
  C 214.10 141.10 217.79 134.59 209.32 131.10"
/>
<path stroke="#6f8cfc" vector-effect="non-scaling-stroke" d="
  M 263.90 98.12
  L 263.65 95.08
  A 1.12 1.12 0.0 0 0 261.93 94.23
  C 254.73 98.88 260.88 104.95 266.21 106.56
  Q 276.00 109.52 284.84 105.71
  C 288.49 104.14 292.09 100.27 289.05 96.22
  Q 287.51 94.16 285.29 93.83"
/>
<path stroke="#a9bffc" vector-effect="non-scaling-stroke" d="
  M 320.51 160.94
  Q 320.28 160.93 320.15 161.09
  Q 320.06 161.21 320.06 161.43
  Q 319.95 176.91 320.01 192.54"
/>
<path stroke="#a3bafc" vector-effect="non-scaling-stroke" d="
  M 320.01 192.54
  L 319.99 216.19"
/>
<path stroke="#5f86fc" vector-effect="non-scaling-stroke" d="
  M 319.99 216.19
  Q 318.98 215.29 318.35 213.77
  Q 318.26 213.55 318.35 213.64
  Q 318.45 213.74 318.36 213.87
  Q 318.27 214.00 318.13 213.92
  Q 312.98 211.17 311.48 210.66
  Q 305.40 208.61 299.86 205.63
  Q 294.11 202.53 288.57 199.94
  Q 288.17 199.75 288.02 200.16
  Q 287.96 200.31 287.81 200.34
  Q 287.18 200.47 287.11 199.84
  Q 287.07 199.42 286.79 199.04
  Q 286.70 198.91 286.69 199.07
  Q 286.69 199.37 286.15 199.26"
/>
<path stroke="#729dfb" vector-effect="non-scaling-stroke" d="
  M 286.15 199.26
  C 284.34 185.31 276.21 174.32 262.28 170.44
  Q 259.18 169.58 255.84 170.45
  Q 250.47 171.85 246.53 174.16
  Q 233.22 181.96 228.41 198.45
  Q 222.96 217.11 231.55 233.94
  Q 232.10 235.02 234.01 237.54
  Q 235.41 239.39 236.17 241.39"
/>
<path stroke="#5f86fc" vector-effect="non-scaling-stroke" d="
  M 236.17 241.39
  Q 223.92 233.15 221.47 218.76
  Q 218.16 199.22 228.82 182.60
  Q 231.03 179.14 234.32 176.06
  Q 237.46 173.12 241.12 171.02
  A 1.07 1.07 0.0 0 0 241.11 169.16
  Q 238.36 167.60 235.93 165.36
  Q 234.57 164.10 233.05 163.10
  Q 231.45 162.06 229.85 160.79
  Q 229.10 160.19 228.34 159.62
  Q 225.62 157.57 222.61 155.04
  Q 222.24 154.73 221.77 154.73
  Q 220.23 154.75 220.10 153.28
  Q 220.05 152.77 219.71 152.37
  Q 218.82 151.35 217.71 151.09
  Q 217.22 150.98 216.90 150.60
  Q 216.44 150.06 215.94 149.53
  Q 215.18 148.74 216.20 149.16
  Q 216.40 149.24 216.51 149.02
  Q 216.72 148.57 216.27 148.37
  Q 215.91 148.21 215.90 147.88"
/>
<path stroke="#7092fc" vector-effect="non-scaling-stroke" d="
  M 236.17 241.39
  Q 240.60 244.31 243.85 245.91
  C 256.24 252.04 270.07 245.46 277.45 235.17
  Q 288.81 219.33 286.15 199.26"
/>
<path stroke="#a1affd" vector-effect="non-scaling-stroke" d="
  M 319.99 216.19
  Q 320.09 230.39 319.98 244.93
  C 319.94 249.57 318.77 252.17 314.76 254.21
  Q 292.30 265.64 269.77 276.97"
/>
<path stroke="#5c76fd" vector-effect="non-scaling-stroke" d="
  M 269.77 276.97
  Q 267.60 275.36 265.59 273.70
  Q 262.95 271.50 260.38 269.30
  Q 258.52 267.71 255.17 265.82
  Q 252.94 264.56 250.30 262.55
  C 249.43 261.90 248.54 261.83 247.85 260.97
  Q 246.98 259.87 245.64 259.91
  Q 244.96 259.93 244.30 259.57
  Q 243.42 259.10 243.48 258.29
  Q 243.52 257.79 243.13 257.49
  Q 237.75 253.24 232.04 249.46
  Q 229.90 248.04 227.58 246.85
  C 223.36 244.68 219.54 241.67 215.66 238.95
  Q 213.70 237.58 211.80 236.05
  Q 209.09 233.86 205.93 232.55
  Q 203.94 231.73 202.11 230.48
  Q 200.20 229.16 198.48 227.87
  A 0.71 0.69 -60.6 0 1 198.26 227.05
  Q 198.52 226.42 198.95 226.46
  Q 199.86 226.56 198.98 226.32
  Q 197.81 226.00 198.34 224.79
  Q 198.51 224.42 198.16 224.19
  Q 193.67 221.28 189.00 217.58
  Q 186.67 215.74 183.80 214.56
  Q 181.36 213.55 179.00 212.02
  Q 175.08 209.48 171.16 206.82
  A 4.40 2.69 23.0 0 0 170.64 206.50
  L 156.24 198.59
  Q 155.88 198.39 155.88 197.98
  L 155.88 195.48
  Q 155.88 195.16 155.57 195.14
  Q 155.42 195.12 155.32 195.01
  Q 155.13 194.78 155.13 194.47
  Q 155.12 193.00 155.13 191.53
  A 0.03 0.03 0.0 0 1 155.19 191.53
  Q 155.25 192.23 155.09 192.93
  Q 154.93 193.65 154.70 192.95
  Q 154.47 192.27 154.63 191.61
  Q 154.74 192.06 154.58 192.41
  Q 154.37 192.91 154.36 192.37
  Q 154.35 191.60 154.02 191.20"
/>
<path stroke="#8dc5f3" vector-effect="non-scaling-stroke" d="
  M 396.57 198.36
  Q 397.07 197.71 397.04 199.09"
/>
<path stroke="#8bcff8" vector-effect="non-scaling-stroke" d="
  M 397.04 199.09
  L 396.99 233.10"
/>
<path stroke="#ebe8fd" vector-effect="non-scaling-stroke" d="
  M 396.99 233.10
  Q 394.66 233.18 390.04 230.74
  Q 360.41 215.10 330.74 199.56
  Q 323.65 195.85 320.01 192.54"
/>
<path stroke="#86caf8" vector-effect="non-scaling-stroke" d="
  M 396.99 233.10
  L 396.97 266.60
  A 4.46 4.46 0.0 0 0 399.44 270.59
  Q 429.15 285.46 459.05 300.43
  Q 462.08 301.95 465.83 300.41"
/>
<path stroke="#88c0f3" vector-effect="non-scaling-stroke" d="
  M 465.83 300.41
  Q 467.87 300.12 470.22 299.26
  C 471.75 298.70 472.88 297.28 472.89 295.75
  Q 472.97 283.15 472.99 270.53"
/>
<path stroke="#ebe8fd" vector-effect="non-scaling-stroke" d="
  M 472.99 270.53
  Q 472.90 272.65 473.94 273.52
  Q 475.00 274.41 475.04 274.46
  Q 476.40 276.03 477.45 276.58
  Q 510.09 293.77 542.75 310.92
  C 546.44 312.86 550.32 314.42 553.79 316.72
  Q 555.02 317.53 554.01 318.60
  Q 552.84 319.85 551.34 320.60
  Q 527.33 332.66 505.79 343.77
  Q 497.42 348.08 489.33 352.23
  Q 474.81 359.66 461.01 366.84
  C 456.35 369.26 451.87 371.29 447.36 373.79
  Q 442.31 376.57 437.20 379.18
  Q 393.61 401.37 349.93 423.94
  Q 346.85 425.54 344.29 423.17
  Q 342.32 421.34 340.10 422.76
  Q 336.04 425.35 331.94 427.88
  Q 329.10 429.63 326.79 428.23
  Q 316.22 421.80 304.73 416.05
  A 1.36 1.36 0.0 0 1 304.69 413.64
  L 313.42 408.92
  A 1.02 1.02 0.0 0 0 313.33 407.08
  Q 310.88 406.08 308.43 403.35"
/>
<path stroke="#ecddf4" vector-effect="non-scaling-stroke" d="
  M 308.43 403.35
  Q 314.57 400.50 317.18 398.93
  Q 331.43 390.35 345.94 382.36
  A 1.20 1.19 -41.1 0 0 346.08 380.35
  C 344.80 379.40 342.69 378.78 343.19 376.68"
/>
<path stroke="#f1bdcd" vector-effect="non-scaling-stroke" d="
  M 343.19 376.68
  L 347.07 374.63
  A 0.59 0.59 0.0 0 0 347.07 373.59
  L 305.76 351.23"
/>
<path stroke="#f1bad5" vector-effect="non-scaling-stroke" d="
  M 305.76 351.23
  L 283.24 339.09"
/>
<path stroke="#f2b8de" vector-effect="non-scaling-stroke" d="
  M 283.24 339.09
  L 260.57 326.95
  A 2.89 2.89 0.0 0 0 257.74 327.00
  L 212.09 353.44"
/>
<path stroke="#ebe8fd" vector-effect="non-scaling-stroke" d="
  M 212.09 353.44
  Q 211.08 352.20 209.23 351.80
  Q 207.13 351.35 206.22 350.85
  Q 195.21 344.87 184.03 339.19
  C 179.70 336.99 175.57 334.35 171.08 332.24
  Q 166.34 330.01 161.32 327.22
  Q 149.09 320.41 136.41 314.03
  C 132.15 311.89 128.12 309.56 123.78 307.38
  C 113.53 302.20 103.44 296.58 93.28 291.43
  A 1.03 1.02 32.7 0 1 92.94 289.88
  Q 93.85 288.73 95.26 288.33
  Q 96.68 287.92 98.31 287.08
  Q 111.71 280.11 125.71 273.01
  Q 127.98 271.86 130.06 270.74
  Q 140.02 265.39 149.85 260.51
  A 2.88 2.87 38.5 0 1 151.79 260.29
  Q 153.86 260.79 153.33 261.87
  Q 153.26 262.02 153.39 262.10
  Q 153.45 262.14 153.52 262.13
  Q 153.66 262.13 153.64 261.98
  Q 153.39 260.63 153.99 259.93"
/>
<path stroke="#9fa3fe" vector-effect="non-scaling-stroke" d="
  M 154.05 273.46
  Q 153.98 290.35 153.88 307.25
  Q 153.83 314.97 159.73 318.83
  Q 171.20 326.34 184.15 319.98
  Q 204.20 310.12 223.58 300.33"
/>
<path stroke="#a0a9fd" vector-effect="non-scaling-stroke" d="
  M 269.77 276.97
  L 223.58 300.33"
/>
<path stroke="#5a6afe" vector-effect="non-scaling-stroke" d="
  M 223.58 300.33
  Q 218.46 296.64 213.31 292.86
  Q 211.60 291.60 203.77 286.12
  Q 199.51 283.14 194.46 279.08
  Q 193.64 278.43 191.05 277.29
  Q 188.11 276.00 185.64 273.76
  C 183.91 272.19 181.53 271.72 180.02 269.93
  Q 179.17 268.91 177.91 268.29
  Q 176.65 267.67 175.81 266.63
  Q 174.23 264.66 171.71 263.82
  Q 171.33 263.70 171.08 263.38
  Q 170.76 262.98 170.31 262.72
  Q 168.67 261.76 166.72 260.88
  Q 165.28 260.23 164.34 259.29
  Q 163.49 258.44 162.55 257.61
  Q 161.87 257.00 160.93 256.54
  Q 159.83 256.00 158.98 254.91
  Q 158.77 254.63 158.44 254.76
  Q 157.07 255.32 155.87 254.12
  Q 155.32 253.57 155.21 254.34
  L 155.11 254.98
  Q 154.97 255.92 154.83 254.99
  Q 154.80 254.77 154.77 254.56
  Q 154.76 254.51 154.72 254.48
  Q 154.68 254.44 154.63 254.46
  Q 154.53 254.50 154.53 254.62
  Q 154.33 264.04 154.05 273.46"
/>
<path stroke="#a0a9fd" vector-effect="non-scaling-stroke" d="
  M 154.05 273.46
  L 153.99 259.93"
/>
<path stroke="#a6affd" vector-effect="non-scaling-stroke" d="
  M 153.99 259.93
  L 153.89 235.77"
/>
<path stroke="#28a7ee" vector-effect="non-scaling-stroke" d="
  M 408.87 210.26
  L 407.95 210.14
  Q 407.46 210.08 407.20 209.66
  Q 404.37 205.26 401.23 200.73
  Q 400.11 199.10 398.88 196.17
  Q 398.53 195.35 398.65 196.24
  Q 398.65 196.27 398.63 196.49
  Q 398.60 196.75 398.40 196.93
  Q 397.56 197.67 397.04 199.09"
/>
<path stroke="#28a7ee" vector-effect="non-scaling-stroke" d="
  M 465.58 227.06
  L 465.83 227.12
  Q 465.85 227.13 465.85 227.15
  C 466.43 232.41 466.12 237.56 466.19 242.84
  Q 466.60 271.70 465.83 300.41"
/>
<path stroke="#f7bede" vector-effect="non-scaling-stroke" d="
  M 212.09 353.44
  L 193.79 363.96
  A 0.59 0.59 0.0 0 0 193.83 365.01
  L 198.08 367.07"
/>
<path stroke="#f2e2f4" vector-effect="non-scaling-stroke" d="
  M 198.08 367.07
  Q 197.04 369.09 194.63 370.40
  A 1.13 1.12 -45.3 0 0 194.64 372.38
  Q 206.88 378.90 219.54 385.54
  Q 221.31 386.46 223.12 387.43
  Q 232.39 392.36 242.95 397.92
  Q 244.54 398.76 245.97 399.75
  Q 247.57 400.87 249.01 401.59
  Q 257.66 405.94 266.28 410.36
  Q 266.35 410.39 270.80 412.48
  Q 274.51 414.23 278.07 416.48
  Q 279.70 417.51 281.71 417.69
  Q 283.38 417.84 285.28 416.77
  Q 297.00 410.19 308.43 403.35"
/>
<path stroke="#f8b8c4" vector-effect="non-scaling-stroke" d="
  M 343.19 376.68
  L 308.25 396.61"
/>
<path stroke="#f8b8c4" vector-effect="non-scaling-stroke" d="
  M 304.92 379.88
  Q 310.46 376.70 316.04 373.56
  Q 319.40 371.67 317.67 368.85
  Q 314.89 364.30 309.21 366.83"
/>
<path stroke="#8dc5f3" vector-effect="non-scaling-stroke" d="
  M 473.01 239.99
  L 472.99 270.53"
/>
<path stroke="#fd95a5" vector-effect="non-scaling-stroke" d="
  M 305.76 351.23
  L 306.39 355.80
  A 1.33 1.31 -72.0 0 0 306.78 356.58
  C 307.55 357.34 307.83 358.52 307.47 359.56
  Q 307.24 360.21 307.45 360.86
  Q 308.06 362.71 308.01 364.78
  Q 308.00 365.17 308.32 365.38
  L 309.13 365.90
  A 0.05 0.05 0.0 0 1 309.12 365.99
  Q 308.92 366.07 308.78 366.21
  Q 308.48 366.51 308.80 366.79
  Q 308.96 366.92 309.21 366.83"
/>
<path stroke="#f8b5cc" vector-effect="non-scaling-stroke" d="
  M 309.21 366.83
  Q 291.50 377.04 272.46 387.83
  Q 269.12 389.72 271.75 393.17
  Q 271.93 393.42 272.22 393.59
  Q 276.34 396.02 279.76 394.10
  Q 293.33 386.48 304.92 379.88"
/>
<path stroke="#fd95a5" vector-effect="non-scaling-stroke" d="
  M 304.92 379.88
  Q 304.63 380.62 305.14 381.13
  Q 305.50 381.49 305.94 381.16
  Q 306.21 380.96 306.03 381.25
  Q 306.01 381.30 306.03 381.35
  Q 306.18 381.73 305.77 381.80
  Q 305.51 381.85 305.27 381.94
  Q 304.71 382.15 304.90 382.72
  Q 305.15 383.48 304.93 384.21
  Q 304.83 384.54 304.97 384.86
  Q 305.22 385.43 304.97 385.97
  Q 304.80 386.34 304.99 386.70
  Q 305.78 388.21 305.18 389.86
  Q 305.00 390.35 305.14 390.86
  L 306.12 394.28
  Q 306.26 394.77 306.74 394.94
  Q 307.36 395.17 307.12 395.81
  A 0.60 0.59 20.4 0 0 307.48 396.58
  Q 307.77 396.70 308.25 396.61"
/>
<path stroke="#f8b5cc" vector-effect="non-scaling-stroke" d="
  M 308.25 396.61
  L 283.73 410.49
  A 2.89 2.88 44.0 0 1 280.94 410.53
  L 263.74 401.45"
/>
<path stroke="#fe90b6" vector-effect="non-scaling-stroke" d="
  M 283.24 339.09
  Q 283.90 340.44 285.59 341.32
  Q 286.20 341.63 285.68 342.08
  Q 284.32 343.25 285.07 345.12
  Q 285.52 346.23 285.73 347.52
  Q 286.13 350.00 286.54 352.26
  Q 286.64 352.83 287.09 353.19
  Q 287.61 353.61 287.66 354.25
  A 0.46 0.45 77.5 0 0 288.28 354.65
  Q 292.75 352.85 295.48 355.90
  Q 298.44 359.19 294.44 361.46
  Q 280.90 369.12 265.88 377.68
  C 264.95 378.21 264.65 379.08 263.66 379.41
  Q 263.06 379.61 263.60 379.93
  Q 264.74 380.62 264.30 381.97
  Q 264.15 382.45 264.33 382.91
  Q 264.86 384.26 264.81 385.74
  Q 264.77 387.00 264.91 388.26
  Q 265.06 389.58 264.92 390.82
  Q 264.73 392.53 265.12 394.15
  Q 265.71 396.55 266.53 398.57
  Q 267.06 399.90 268.23 400.80
  A 0.25 0.25 0.0 0 1 268.27 401.16
  Q 268.18 401.27 268.13 401.40
  Q 267.90 402.03 268.54 401.84
  Q 269.06 401.68 269.29 402.17
  A 1.04 1.02 -11.8 0 0 270.19 402.75
  Q 270.88 402.78 271.18 403.40
  A 0.43 0.43 0.0 0 0 271.61 403.64
  Q 272.96 403.48 272.96 404.90
  Q 272.96 405.15 273.18 405.03
  Q 273.30 404.96 273.35 404.85
  Q 273.50 404.47 273.90 404.47
  Q 275.76 404.48 276.30 406.08
  Q 276.46 406.56 276.94 406.70
  Q 278.13 407.05 279.16 407.69
  Q 279.74 408.05 279.06 408.16
  Q 277.68 408.39 277.10 407.39
  A 0.59 0.59 0.0 0 0 276.47 407.12
  Q 275.97 407.22 275.54 406.97
  Q 275.29 406.82 275.38 406.55
  Q 275.40 406.49 275.40 406.43
  Q 275.39 405.91 274.93 406.17
  Q 274.82 406.24 274.76 406.36
  Q 274.63 406.64 274.34 406.53
  Q 272.61 405.90 271.43 404.60
  Q 271.05 404.18 270.53 404.38
  Q 269.77 404.66 269.49 403.93
  Q 269.33 403.49 268.89 403.33
  L 263.74 401.45"
/>
<path stroke="#f9b3d5" vector-effect="non-scaling-stroke" d="
  M 263.74 401.45
  L 198.08 367.07"
/>
<path stroke="#8dc5f3" vector-effect="non-scaling-stroke" d="
  M 465.76 214.85
  L 465.58 227.06"
/>
<path stroke="#8bcff8" vector-effect="non-scaling-stroke" d="
  M 465.58 227.06
  Q 465.48 227.46 465.28 227.75
  Q 465.10 228.00 464.68 228.15
  Q 447.44 234.12 430.25 240.24
  Q 429.27 240.59 428.67 239.74
  Q 418.84 225.81 408.96 211.70
  Q 408.77 211.43 408.74 211.09
  Q 408.71 210.66 408.87 210.26"
/>
<path stroke="#8dc5f3" vector-effect="non-scaling-stroke" d="
  M 408.87 210.26
  Q 411.93 198.18 412.62 185.42"
/>
<path stroke="#f7c3cd" vector-effect="non-scaling-stroke" d="
  M 449.1802 206.3703
  A 1.84 1.84 0.0 0 0 448.3030 203.9205
  L 424.4353 192.6382
  A 1.84 1.84 0.0 0 0 421.9854 193.5154
  L 421.9598 193.5697
  A 1.84 1.84 0.0 0 0 422.8370 196.0195
  L 446.7047 207.3018
  A 1.84 1.84 0.0 0 0 449.1546 206.4246
  L 449.1802 206.3703"
/>
<path stroke="#d9defc" vector-effect="non-scaling-stroke" d="
  M 445.4864 214.4810
  A 1.70 1.70 0.0 0 0 444.6287 212.2350
  L 423.1041 202.6066
  A 1.70 1.70 0.0 0 0 420.8581 203.4642
  L 420.8336 203.5190
  A 1.70 1.70 0.0 0 0 421.6913 205.7650
  L 443.2159 215.3934
  A 1.70 1.70 0.0 0 0 445.4619 214.5358
  L 445.4864 214.4810"
/>
<path stroke="#d9defc" vector-effect="non-scaling-stroke" d="
  M 444.0804 221.6490
  A 1.67 1.67 0.0 0 0 443.2456 219.4397
  L 421.6818 209.7033
  A 1.67 1.67 0.0 0 0 419.4725 210.5381
  L 419.4396 210.6110
  A 1.67 1.67 0.0 0 0 420.2744 212.8203
  L 441.8382 222.5567
  A 1.67 1.67 0.0 0 0 444.0475 221.7219
  L 444.0804 221.6490"
/>
<path stroke="#d9defc" vector-effect="non-scaling-stroke" d="
  M 442.7592 228.6456
  A 1.56 1.56 0.0 0 0 441.9650 226.5874
  L 420.5715 217.1070
  A 1.56 1.56 0.0 0 0 418.5132 217.9013
  L 418.4808 217.9744
  A 1.56 1.56 0.0 0 0 419.2750 220.0326
  L 440.6685 229.5130
  A 1.56 1.56 0.0 0 0 442.7268 228.7187
  L 442.7592 228.6456"
/>
<path stroke="#6f8cfc" vector-effect="non-scaling-stroke" d="
  M 261.94 194.22
  Q 259.37 191.83 256.22 192.66
  C 250.40 194.20 247.96 202.01 252.29 206.44
  Q 253.20 207.37 254.00 208.30
  Q 254.30 208.65 254.28 209.11
  L 253.54 224.46
  A 0.18 0.18 0.0 0 0 253.78 224.63
  Q 261.58 221.52 263.34 220.38
  Q 263.43 220.32 263.41 220.22
  L 261.22 208.27
  A 2.13 2.11 -28.8 0 1 261.77 206.42
  C 264.95 203.05 265.51 197.54 261.94 194.22"
/>
<path stroke="#eeecfe" vector-effect="non-scaling-stroke" d="
  M 359.58 349.30
  A 0.61 0.61 0.0 0 0 360.14 349.30
  L 411.10 322.66
  A 0.61 0.61 0.0 0 0 411.10 321.58
  L 333.70 279.56
  A 0.61 0.61 0.0 0 0 333.12 279.55
  L 281.46 307.11
  A 0.61 0.61 0.0 0 0 281.46 308.19
  L 359.58 349.30"
/>
<path stroke="#e0ddfd" vector-effect="non-scaling-stroke" d="
  M 456.25 323.64
  Q 461.51 326.54 466.84 329.17
  C 469.12 330.30 471.35 330.49 473.56 329.12
  Q 479.63 325.33 486.34 321.68
  Q 488.72 320.39 490.95 318.59
  A 0.77 0.77 0.0 0 0 490.89 317.34
  C 486.96 314.81 482.66 313.34 478.78 310.91
  C 475.67 308.97 467.26 303.48 463.75 305.37
  Q 454.34 310.42 446.32 315.45
  A 1.47 1.46 -41.7 0 0 446.18 317.84
  Q 447.10 318.57 447.94 319.04
  Q 452.22 321.43 456.25 323.64"
/>
<path stroke="#e0ddfd" vector-effect="non-scaling-stroke" d="
  M 344.79 420.95
  Q 346.54 419.51 349.03 418.02
  Q 350.04 417.42 350.32 416.55
  Q 350.58 415.74 349.84 415.34
  Q 339.11 409.60 327.84 403.59
  Q 325.21 402.19 322.66 403.45
  Q 319.44 405.05 316.51 407.18
  A 1.02 1.02 0.0 0 0 316.63 408.91
  Q 326.51 414.09 336.67 419.57
  Q 337.85 420.20 338.80 420.99
  C 340.10 422.07 341.39 422.18 342.99 421.89
  Q 343.85 421.73 344.79 420.95"
/>
<path stroke="#dce2fc" vector-effect="non-scaling-stroke" d="
  M 340.33 290.50
  Q 337.53 288.12 334.10 289.79
  Q 318.43 297.45 303.02 305.32
  Q 299.90 306.92 301.88 309.81
  Q 302.00 309.99 302.18 310.12
  Q 305.13 312.29 308.45 310.62
  Q 324.45 302.59 339.46 295.35
  Q 342.69 293.79 340.65 290.85
  Q 340.51 290.65 340.33 290.50"
/>
<path stroke="#dce2fc" vector-effect="non-scaling-stroke" d="
  M 349.2873 298.0564
  A 1.05 1.05 0.0 0 0 347.8614 297.6421
  L 315.2277 315.5826
  A 1.05 1.05 0.0 0 0 314.8134 317.0086
  L 314.8327 317.0436
  A 1.05 1.05 0.0 0 0 316.2586 317.4579
  L 348.8923 299.5174
  A 1.05 1.05 0.0 0 0 349.3066 298.0914
  L 349.2873 298.0564"
/>
<path stroke="#dce2fc" vector-effect="non-scaling-stroke" d="
  M 355.3221 300.8752
  A 1.09 1.09 0.0 0 0 353.8410 300.4477
  L 320.9061 318.6288
  A 1.09 1.09 0.0 0 0 320.4786 320.1098
  L 320.4979 320.1448
  A 1.09 1.09 0.0 0 0 321.9790 320.5723
  L 354.9139 302.3912
  A 1.09 1.09 0.0 0 0 355.3414 300.9102
  L 355.3221 300.8752"
/>
<path stroke="#dce2fc" vector-effect="non-scaling-stroke" d="
  M 361.3596 304.3155
  A 1.00 1.00 0.0 0 0 360.0008 303.9233
  L 326.8733 322.2107
  A 1.00 1.00 0.0 0 0 326.4811 323.5695
  L 326.5004 323.6045
  A 1.00 1.00 0.0 0 0 327.8592 323.9967
  L 360.9867 305.7093
  A 1.00 1.00 0.0 0 0 361.3789 304.3505
  L 361.3596 304.3155"
/>
<path stroke="#dce2fc" vector-effect="non-scaling-stroke" d="
  M 377.48 330.60
  A 0.49 0.49 0.0 0 0 377.90 330.60
  L 395.78 322.38
  A 0.49 0.49 0.0 0 0 395.79 321.49
  L 374.49 311.48
  A 0.49 0.49 0.0 0 0 374.07 311.48
  L 356.83 319.89
  A 0.49 0.49 0.0 0 0 356.84 320.78
  L 377.48 330.60"
/>
<path stroke="#dce2fc" vector-effect="non-scaling-stroke" d="
  M 356.9391 324.4996
  A 0.84 0.84 0.0 0 0 355.8025 324.1543
  L 345.9580 329.4108
  A 0.84 0.84 0.0 0 0 345.6126 330.5474
  L 345.6409 330.6004
  A 0.84 0.84 0.0 0 0 346.7775 330.9457
  L 356.6220 325.6892
  A 0.84 0.84 0.0 0 0 356.9674 324.5526
  L 356.9391 324.4996"
/>
<path stroke="#dce2fc" vector-effect="non-scaling-stroke" d="
  M 346.48 336.40
  L 363.34 327.17
  A 0.04 0.04 0.0 0 0 363.36 327.11
  L 363.33 327.07
  A 1.93 1.83 -28.7 0 0 360.76 326.39
  L 347.22 333.81
  A 1.93 1.83 -28.7 0 0 346.40 336.34
  L 346.43 336.38
  A 0.04 0.04 0.0 0 0 346.48 336.40"
/>
<path stroke="#dce2fc" vector-effect="non-scaling-stroke" d="
  M 368.1338 328.6281
  A 0.97 0.97 0.0 0 0 366.8165 328.2454
  L 352.1296 336.3196
  A 0.97 0.97 0.0 0 0 351.7469 337.6369
  L 351.7662 337.6719
  A 0.97 0.97 0.0 0 0 353.0835 338.0546
  L 367.7704 329.9804
  A 0.97 0.97 0.0 0 0 368.1531 328.6631
  L 368.1338 328.6281"
/>
<path stroke="#dce2fc" vector-effect="non-scaling-stroke" d="
  M 374.1774 331.0910
  A 1.01 1.01 0.0 0 0 372.8079 330.6853
  L 358.1492 338.6443
  A 1.01 1.01 0.0 0 0 357.7435 340.0139
  L 357.7626 340.0490
  A 1.01 1.01 0.0 0 0 359.1321 340.4547
  L 373.7908 332.4957
  A 1.01 1.01 0.0 0 0 374.1965 331.1261
  L 374.1774 331.0910"
/>
</g>
<path fill="#c1cefa" d="
  M 285.48 74.99
  L 285.29 93.83
  C 284.92 96.37 285.14 99.45 282.92 101.29
  Q 281.78 102.23 279.93 102.94
  Q 269.29 107.01 263.90 98.12
  L 263.69 85.64
  Q 264.45 65.83 263.87 59.99
  Q 263.36 54.91 260.93 51.92
  Q 250.67 39.32 236.22 48.97
  Q 212.52 64.82 209.30 93.77
  Q 208.93 97.14 209.11 104.87
  Q 209.15 106.47 208.77 108.41
  Q 208.36 110.51 209.12 111.88
  L 209.32 131.10
  Q 209.13 133.01 208.87 134.74
  Q 208.37 138.04 205.47 139.68
  Q 199.30 143.18 192.74 140.54
  Q 188.07 138.65 187.95 134.12
  Q 188.08 128.89 187.68 123.87
  Q 187.65 123.49 187.44 123.19
  Q 187.20 122.84 187.00 122.59
  C 187.50 122.01 187.92 121.64 187.92 120.85
  Q 187.98 111.69 187.87 101.23
  Q 187.78 91.31 189.33 83.55
  Q 193.71 61.61 208.83 44.73
  Q 219.04 33.34 232.15 27.05
  C 254.83 16.17 282.39 32.01 284.87 57.25
  Q 285.68 65.43 284.55 74.19
  Q 284.48 74.75 285.03 74.88
  L 285.48 74.99
  Z"
/>
<path fill="#83a8fb" d="
  M 319.97 93.06
  Q 313.64 98.87 308.75 101.33
  C 277.80 116.85 246.76 132.20 215.90 147.88
  Q 206.50 152.59 197.07 157.27
  Q 190.47 160.55 186.62 161.29
  C 176.60 163.23 163.46 160.86 156.86 152.41
  Q 155.54 150.73 154.04 149.17
  Q 153.70 142.51 157.40 138.23
  Q 159.44 135.86 166.43 132.47
  Q 176.73 127.48 187.00 122.59
  Q 187.20 122.84 187.44 123.19
  Q 187.65 123.49 187.68 123.87
  Q 188.08 128.89 187.95 134.12
  Q 187.70 133.29 187.71 132.95
  A 0.94 0.92 76.4 0 0 186.34 132.09
  C 181.20 134.96 182.04 139.93 186.37 142.68
  C 192.80 146.75 201.83 146.64 208.25 143.74
  C 214.10 141.10 217.79 134.59 209.32 131.10
  L 209.12 111.88
  L 263.69 85.64
  L 263.90 98.12
  L 263.65 95.08
  A 1.12 1.12 0.0 0 0 261.93 94.23
  C 254.73 98.88 260.88 104.95 266.21 106.56
  Q 276.00 109.52 284.84 105.71
  C 288.49 104.14 292.09 100.27 289.05 96.22
  Q 287.51 94.16 285.29 93.83
  L 285.48 74.99
  C 293.43 71.79 298.23 68.06 307.70 71.46
  C 312.82 73.30 319.47 79.57 319.81 85.88
  Q 320.01 89.65 319.97 93.06
  Z"
/>
<path fill="#6191fb" d="
  M 319.97 93.06
  Q 319.84 133.15 320.06 159.25
  Q 320.06 159.96 320.51 160.94
  Q 320.28 160.93 320.15 161.09
  Q 320.06 161.21 320.06 161.43
  Q 319.95 176.91 320.01 192.54
  L 319.99 216.19
  Q 318.98 215.29 318.35 213.77
  Q 318.26 213.55 318.35 213.64
  Q 318.45 213.74 318.36 213.87
  Q 318.27 214.00 318.13 213.92
  Q 312.98 211.17 311.48 210.66
  Q 305.40 208.61 299.86 205.63
  Q 294.11 202.53 288.57 199.94
  Q 288.17 199.75 288.02 200.16
  Q 287.96 200.31 287.81 200.34
  Q 287.18 200.47 287.11 199.84
  Q 287.07 199.42 286.79 199.04
  Q 286.70 198.91 286.69 199.07
  Q 286.69 199.37 286.15 199.26
  C 284.34 185.31 276.21 174.32 262.28 170.44
  Q 259.18 169.58 255.84 170.45
  Q 250.47 171.85 246.53 174.16
  Q 233.22 181.96 228.41 198.45
  Q 222.96 217.11 231.55 233.94
  Q 232.10 235.02 234.01 237.54
  Q 235.41 239.39 236.17 241.39
  Q 223.92 233.15 221.47 218.76
  Q 218.16 199.22 228.82 182.60
  Q 231.03 179.14 234.32 176.06
  Q 237.46 173.12 241.12 171.02
  A 1.07 1.07 0.0 0 0 241.11 169.16
  Q 238.36 167.60 235.93 165.36
  Q 234.57 164.10 233.05 163.10
  Q 231.45 162.06 229.85 160.79
  Q 229.10 160.19 228.34 159.62
  Q 225.62 157.57 222.61 155.04
  Q 222.24 154.73 221.77 154.73
  Q 220.23 154.75 220.10 153.28
  Q 220.05 152.77 219.71 152.37
  Q 218.82 151.35 217.71 151.09
  Q 217.22 150.98 216.90 150.60
  Q 216.44 150.06 215.94 149.53
  Q 215.18 148.74 216.20 149.16
  Q 216.40 149.24 216.51 149.02
  Q 216.72 148.57 216.27 148.37
  Q 215.91 148.21 215.90 147.88
  C 246.76 132.20 277.80 116.85 308.75 101.33
  Q 313.64 98.87 319.97 93.06
  Z"
/>
<path fill="#5b70fd" d="
  M 263.90 98.12
  Q 269.29 107.01 279.93 102.94
  Q 281.78 102.23 282.92 101.29
  C 285.14 99.45 284.92 96.37 285.29 93.83
  Q 287.51 94.16 289.05 96.22
  C 292.09 100.27 288.49 104.14 284.84 105.71
  Q 276.00 109.52 266.21 106.56
  C 260.88 104.95 254.73 98.88 261.93 94.23
  A 1.12 1.12 0.0 0 1 263.65 95.08
  L 263.90 98.12
  Z"
/>
<path fill="#e5e2fd" d="
  M 560.49 120.51
  Q 560.90 120.66 560.72 121.35
  A 0.73 0.71 -6.9 0 1 560.35 121.81
  Q 551.16 126.53 542.82 131.16
  Q 538.29 133.68 533.64 136.03
  C 531.49 137.12 529.38 136.94 527.33 135.90
  Q 515.17 129.75 501.06 122.39
  C 499.21 121.43 495.93 120.38 493.87 118.71
  A 1.18 1.18 0.0 0 1 494.05 116.76
  Q 507.77 109.31 520.99 102.53
  Q 523.34 101.33 525.65 102.51
  Q 542.96 111.33 559.33 119.55
  Q 559.89 119.83 560.24 120.31
  Q 560.33 120.45 560.49 120.51
  Z"
/>
<path fill="#5b70fd" d="
  M 209.32 131.10
  C 217.79 134.59 214.10 141.10 208.25 143.74
  C 201.83 146.64 192.80 146.75 186.37 142.68
  C 182.04 139.93 181.20 134.96 186.34 132.09
  A 0.94 0.92 76.4 0 1 187.71 132.95
  Q 187.70 133.29 187.95 134.12
  Q 188.07 138.65 192.74 140.54
  Q 199.30 143.18 205.47 139.68
  Q 208.37 138.04 208.87 134.74
  Q 209.13 133.01 209.32 131.10
  Z"
/>
<path fill="#dbd7fd" d="
  M 58.34 144.88
  C 65.21 148.27 72.03 151.55 78.80 154.95
  Q 79.30 155.19 79.60 155.60
  Q 80.20 156.41 79.30 156.85
  Q 69.88 161.53 62.25 165.73
  Q 60.03 166.95 57.65 165.77
  Q 46.36 160.19 37.39 155.34
  A 0.98 0.96 24.1 0 1 36.93 154.16
  Q 37.12 153.62 37.64 153.37
  Q 45.72 149.43 54.27 144.93
  A 4.49 4.48 44.2 0 1 58.34 144.88
  Z"
/>
<path fill="#5d7bfd" d="
  M 215.90 147.88
  Q 215.91 148.21 216.27 148.37
  Q 216.72 148.57 216.51 149.02
  Q 216.40 149.24 216.20 149.16
  Q 215.18 148.74 215.94 149.53
  Q 216.44 150.06 216.90 150.60
  Q 217.22 150.98 217.71 151.09
  Q 218.82 151.35 219.71 152.37
  Q 220.05 152.77 220.10 153.28
  Q 220.23 154.75 221.77 154.73
  Q 222.24 154.73 222.61 155.04
  Q 225.62 157.57 228.34 159.62
  Q 229.10 160.19 229.85 160.79
  Q 231.45 162.06 233.05 163.10
  Q 234.57 164.10 235.93 165.36
  Q 238.36 167.60 241.11 169.16
  A 1.07 1.07 0.0 0 1 241.12 171.02
  Q 237.46 173.12 234.32 176.06
  Q 231.03 179.14 228.82 182.60
  Q 218.16 199.22 221.47 218.76
  Q 223.92 233.15 236.17 241.39
  Q 240.60 244.31 243.85 245.91
  C 256.24 252.04 270.07 245.46 277.45 235.17
  Q 288.81 219.33 286.15 199.26
  Q 286.69 199.37 286.69 199.07
  Q 286.70 198.91 286.79 199.04
  Q 287.07 199.42 287.11 199.84
  Q 287.18 200.47 287.81 200.34
  Q 287.96 200.31 288.02 200.16
  Q 288.17 199.75 288.57 199.94
  Q 294.11 202.53 299.86 205.63
  Q 305.40 208.61 311.48 210.66
  Q 312.98 211.17 318.13 213.92
  Q 318.27 214.00 318.36 213.87
  Q 318.45 213.74 318.35 213.64
  Q 318.26 213.55 318.35 213.77
  Q 318.98 215.29 319.99 216.19
  Q 320.09 230.39 319.98 244.93
  C 319.94 249.57 318.77 252.17 314.76 254.21
  Q 292.30 265.64 269.77 276.97
  Q 267.60 275.36 265.59 273.70
  Q 262.95 271.50 260.38 269.30
  Q 258.52 267.71 255.17 265.82
  Q 252.94 264.56 250.30 262.55
  C 249.43 261.90 248.54 261.83 247.85 260.97
  Q 246.98 259.87 245.64 259.91
  Q 244.96 259.93 244.30 259.57
  Q 243.42 259.10 243.48 258.29
  Q 243.52 257.79 243.13 257.49
  Q 237.75 253.24 232.04 249.46
  Q 229.90 248.04 227.58 246.85
  C 223.36 244.68 219.54 241.67 215.66 238.95
  Q 213.70 237.58 211.80 236.05
  Q 209.09 233.86 205.93 232.55
  Q 203.94 231.73 202.11 230.48
  Q 200.20 229.16 198.48 227.87
  A 0.71 0.69 -60.6 0 1 198.26 227.05
  Q 198.52 226.42 198.95 226.46
  Q 199.86 226.56 198.98 226.32
  Q 197.81 226.00 198.34 224.79
  Q 198.51 224.42 198.16 224.19
  Q 193.67 221.28 189.00 217.58
  Q 186.67 215.74 183.80 214.56
  Q 181.36 213.55 179.00 212.02
  Q 175.08 209.48 171.16 206.82
  A 4.40 2.69 23.0 0 0 170.64 206.50
  L 156.24 198.59
  Q 155.88 198.39 155.88 197.98
  L 155.88 195.48
  Q 155.88 195.16 155.57 195.14
  Q 155.42 195.12 155.32 195.01
  Q 155.13 194.78 155.13 194.47
  Q 155.12 193.00 155.13 191.53
  A 0.03 0.03 0.0 0 1 155.19 191.53
  Q 155.25 192.23 155.09 192.93
  Q 154.93 193.65 154.70 192.95
  Q 154.47 192.27 154.63 191.61
  Q 154.74 192.06 154.58 192.41
  Q 154.37 192.91 154.36 192.37
  Q 154.35 191.60 154.02 191.20
  L 154.04 149.17
  Q 155.54 150.73 156.86 152.41
  C 163.46 160.86 176.60 163.23 186.62 161.29
  Q 190.47 160.55 197.07 157.27
  Q 206.50 152.59 215.90 147.88
  Z"
/>
<path fill="#f0edfd" d="
  M 320.51 160.94
  C 325.42 161.31 329.46 164.61 333.70 166.83
  Q 359.57 180.43 385.53 193.88
  Q 391.88 197.17 396.57 198.36
  Q 397.07 197.71 397.04 199.09
  L 396.99 233.10
  Q 394.66 233.18 390.04 230.74
  Q 360.41 215.10 330.74 199.56
  Q 323.65 195.85 320.01 192.54
  Q 319.95 176.91 320.06 161.43
  Q 320.06 161.21 320.15 161.09
  Q 320.28 160.93 320.51 160.94
  Z"
/>
<path fill="#f0edfd" d="
  M 465.76 214.85
  L 465.58 227.06
  Q 465.48 227.46 465.28 227.75
  Q 465.10 228.00 464.68 228.15
  Q 447.44 234.12 430.25 240.24
  Q 429.27 240.59 428.67 239.74
  Q 418.84 225.81 408.96 211.70
  Q 408.77 211.43 408.74 211.09
  Q 408.71 210.66 408.87 210.26
  Q 411.93 198.18 412.62 185.42
  L 412.84 170.19
  Q 412.88 167.62 415.22 168.67
  Q 438.16 178.93 461.53 189.12
  Q 465.36 190.79 465.44 195.37
  Q 465.58 203.26 465.52 211.04
  Q 465.52 211.98 465.64 212.94
  Q 465.77 214.04 465.76 214.85
  Z
  M 449.1802 206.3703
  A 1.84 1.84 0.0 0 0 448.3030 203.9205
  L 424.4353 192.6382
  A 1.84 1.84 0.0 0 0 421.9854 193.5154
  L 421.9598 193.5697
  A 1.84 1.84 0.0 0 0 422.8370 196.0195
  L 446.7047 207.3018
  A 1.84 1.84 0.0 0 0 449.1546 206.4246
  L 449.1802 206.3703
  Z
  M 445.4864 214.4810
  A 1.70 1.70 0.0 0 0 444.6287 212.2350
  L 423.1041 202.6066
  A 1.70 1.70 0.0 0 0 420.8581 203.4642
  L 420.8336 203.5190
  A 1.70 1.70 0.0 0 0 421.6913 205.7650
  L 443.2159 215.3934
  A 1.70 1.70 0.0 0 0 445.4619 214.5358
  L 445.4864 214.4810
  Z
  M 444.0804 221.6490
  A 1.67 1.67 0.0 0 0 443.2456 219.4397
  L 421.6818 209.7033
  A 1.67 1.67 0.0 0 0 419.4725 210.5381
  L 419.4396 210.6110
  A 1.67 1.67 0.0 0 0 420.2744 212.8203
  L 441.8382 222.5567
  A 1.67 1.67 0.0 0 0 444.0475 221.7219
  L 444.0804 221.6490
  Z
  M 442.7592 228.6456
  A 1.56 1.56 0.0 0 0 441.9650 226.5874
  L 420.5715 217.1070
  A 1.56 1.56 0.0 0 0 418.5132 217.9013
  L 418.4808 217.9744
  A 1.56 1.56 0.0 0 0 419.2750 220.0326
  L 440.6685 229.5130
  A 1.56 1.56 0.0 0 0 442.7268 228.7187
  L 442.7592 228.6456
  Z"
/>
<path fill="#83a8fb" d="
  M 286.15 199.26
  Q 288.81 219.33 277.45 235.17
  C 270.07 245.46 256.24 252.04 243.85 245.91
  Q 240.60 244.31 236.17 241.39
  Q 235.41 239.39 234.01 237.54
  Q 232.10 235.02 231.55 233.94
  Q 222.96 217.11 228.41 198.45
  Q 233.22 181.96 246.53 174.16
  Q 250.47 171.85 255.84 170.45
  Q 259.18 169.58 262.28 170.44
  C 276.21 174.32 284.34 185.31 286.15 199.26
  Z
  M 261.94 194.22
  Q 259.37 191.83 256.22 192.66
  C 250.40 194.20 247.96 202.01 252.29 206.44
  Q 253.20 207.37 254.00 208.30
  Q 254.30 208.65 254.28 209.11
  L 253.54 224.46
  A 0.18 0.18 0.0 0 0 253.78 224.63
  Q 261.58 221.52 263.34 220.38
  Q 263.43 220.32 263.41 220.22
  L 261.22 208.27
  A 2.13 2.11 -28.8 0 1 261.77 206.42
  C 264.95 203.05 265.51 197.54 261.94 194.22
  Z"
/>
<path fill="#2a9de9" d="
  M 412.62 185.42
  Q 411.93 198.18 408.87 210.26
  L 407.95 210.14
  Q 407.46 210.08 407.20 209.66
  Q 404.37 205.26 401.23 200.73
  Q 400.11 199.10 398.88 196.17
  Q 398.53 195.35 398.65 196.24
  Q 398.65 196.27 398.63 196.49
  Q 398.60 196.75 398.40 196.93
  Q 397.56 197.67 397.04 199.09
  Q 397.07 197.71 396.57 198.36
  L 397.39 194.84
  Q 397.51 194.34 397.95 194.08
  L 412.62 185.42
  Z"
/>
<path fill="#5b70fd" d="
  M 269.77 276.97
  L 223.58 300.33
  Q 218.46 296.64 213.31 292.86
  Q 211.60 291.60 203.77 286.12
  Q 199.51 283.14 194.46 279.08
  Q 193.64 278.43 191.05 277.29
  Q 188.11 276.00 185.64 273.76
  C 183.91 272.19 181.53 271.72 180.02 269.93
  Q 179.17 268.91 177.91 268.29
  Q 176.65 267.67 175.81 266.63
  Q 174.23 264.66 171.71 263.82
  Q 171.33 263.70 171.08 263.38
  Q 170.76 262.98 170.31 262.72
  Q 168.67 261.76 166.72 260.88
  Q 165.28 260.23 164.34 259.29
  Q 163.49 258.44 162.55 257.61
  Q 161.87 257.00 160.93 256.54
  Q 159.83 256.00 158.98 254.91
  Q 158.77 254.63 158.44 254.76
  Q 157.07 255.32 155.87 254.12
  Q 155.32 253.57 155.21 254.34
  L 155.11 254.98
  Q 154.97 255.92 154.83 254.99
  Q 154.80 254.77 154.77 254.56
  Q 154.76 254.51 154.72 254.48
  Q 154.68 254.44 154.63 254.46
  Q 154.53 254.50 154.53 254.62
  Q 154.33 264.04 154.05 273.46
  L 153.99 259.93
  L 153.89 235.77
  L 154.02 191.20
  Q 154.35 191.60 154.36 192.37
  Q 154.37 192.91 154.58 192.41
  Q 154.74 192.06 154.63 191.61
  Q 154.47 192.27 154.70 192.95
  Q 154.93 193.65 155.09 192.93
  Q 155.25 192.23 155.19 191.53
  A 0.03 0.03 0.0 0 0 155.13 191.53
  Q 155.12 193.00 155.13 194.47
  Q 155.13 194.78 155.32 195.01
  Q 155.42 195.12 155.57 195.14
  Q 155.88 195.16 155.88 195.48
  L 155.88 197.98
  Q 155.88 198.39 156.24 198.59
  L 170.64 206.50
  A 4.40 2.69 23.0 0 1 171.16 206.82
  Q 175.08 209.48 179.00 212.02
  Q 181.36 213.55 183.80 214.56
  Q 186.67 215.74 189.00 217.58
  Q 193.67 221.28 198.16 224.19
  Q 198.51 224.42 198.34 224.79
  Q 197.81 226.00 198.98 226.32
  Q 199.86 226.56 198.95 226.46
  Q 198.52 226.42 198.26 227.05
  A 0.71 0.69 -60.6 0 0 198.48 227.87
  Q 200.20 229.16 202.11 230.48
  Q 203.94 231.73 205.93 232.55
  Q 209.09 233.86 211.80 236.05
  Q 213.70 237.58 215.66 238.95
  C 219.54 241.67 223.36 244.68 227.58 246.85
  Q 229.90 248.04 232.04 249.46
  Q 237.75 253.24 243.13 257.49
  Q 243.52 257.79 243.48 258.29
  Q 243.42 259.10 244.30 259.57
  Q 244.96 259.93 245.64 259.91
  Q 246.98 259.87 247.85 260.97
  C 248.54 261.83 249.43 261.90 250.30 262.55
  Q 252.94 264.56 255.17 265.82
  Q 258.52 267.71 260.38 269.30
  Q 262.95 271.50 265.59 273.70
  Q 267.60 275.36 269.77 276.97
  Z"
/>
<path fill="#5b70fd" d="
  M 261.94 194.22
  C 265.51 197.54 264.95 203.05 261.77 206.42
  A 2.13 2.11 -28.8 0 0 261.22 208.27
  L 263.41 220.22
  Q 263.43 220.32 263.34 220.38
  Q 261.58 221.52 253.78 224.63
  A 0.18 0.18 0.0 0 1 253.54 224.46
  L 254.28 209.11
  Q 254.30 208.65 254.00 208.30
  Q 253.20 207.37 252.29 206.44
  C 247.96 202.01 250.40 194.20 256.22 192.66
  Q 259.37 191.83 261.94 194.22
  Z"
/>
<path fill="#e5e2fd" d="
  M 320.01 192.54
  Q 323.65 195.85 330.74 199.56
  Q 360.41 215.10 390.04 230.74
  Q 394.66 233.18 396.99 233.10
  L 396.97 266.60
  A 4.46 4.46 0.0 0 0 399.44 270.59
  Q 429.15 285.46 459.05 300.43
  Q 462.08 301.95 465.83 300.41
  Q 467.87 300.12 470.22 299.26
  C 471.75 298.70 472.88 297.28 472.89 295.75
  Q 472.97 283.15 472.99 270.53
  Q 472.90 272.65 473.94 273.52
  Q 475.00 274.41 475.04 274.46
  Q 476.40 276.03 477.45 276.58
  Q 510.09 293.77 542.75 310.92
  C 546.44 312.86 550.32 314.42 553.79 316.72
  Q 555.02 317.53 554.01 318.60
  Q 552.84 319.85 551.34 320.60
  Q 527.33 332.66 505.79 343.77
  Q 497.42 348.08 489.33 352.23
  Q 474.81 359.66 461.01 366.84
  C 456.35 369.26 451.87 371.29 447.36 373.79
  Q 442.31 376.57 437.20 379.18
  Q 393.61 401.37 349.93 423.94
  Q 346.85 425.54 344.29 423.17
  Q 342.32 421.34 340.10 422.76
  Q 336.04 425.35 331.94 427.88
  Q 329.10 429.63 326.79 428.23
  Q 316.22 421.80 304.73 416.05
  A 1.36 1.36 0.0 0 1 304.69 413.64
  L 313.42 408.92
  A 1.02 1.02 0.0 0 0 313.33 407.08
  Q 310.88 406.08 308.43 403.35
  Q 314.57 400.50 317.18 398.93
  Q 331.43 390.35 345.94 382.36
  A 1.20 1.19 -41.1 0 0 346.08 380.35
  C 344.80 379.40 342.69 378.78 343.19 376.68
  L 347.07 374.63
  A 0.59 0.59 0.0 0 0 347.07 373.59
  L 305.76 351.23
  L 283.24 339.09
  L 260.57 326.95
  A 2.89 2.89 0.0 0 0 257.74 327.00
  L 212.09 353.44
  Q 211.08 352.20 209.23 351.80
  Q 207.13 351.35 206.22 350.85
  Q 195.21 344.87 184.03 339.19
  C 179.70 336.99 175.57 334.35 171.08 332.24
  Q 166.34 330.01 161.32 327.22
  Q 149.09 320.41 136.41 314.03
  C 132.15 311.89 128.12 309.56 123.78 307.38
  C 113.53 302.20 103.44 296.58 93.28 291.43
  A 1.03 1.02 32.7 0 1 92.94 289.88
  Q 93.85 288.73 95.26 288.33
  Q 96.68 287.92 98.31 287.08
  Q 111.71 280.11 125.71 273.01
  Q 127.98 271.86 130.06 270.74
  Q 140.02 265.39 149.85 260.51
  A 2.88 2.87 38.5 0 1 151.79 260.29
  Q 153.86 260.79 153.33 261.87
  Q 153.26 262.02 153.39 262.10
  Q 153.45 262.14 153.52 262.13
  Q 153.66 262.13 153.64 261.98
  Q 153.39 260.63 153.99 259.93
  L 154.05 273.46
  Q 153.98 290.35 153.88 307.25
  Q 153.83 314.97 159.73 318.83
  Q 171.20 326.34 184.15 319.98
  Q 204.20 310.12 223.58 300.33
  L 269.77 276.97
  Q 292.30 265.64 314.76 254.21
  C 318.77 252.17 319.94 249.57 319.98 244.93
  Q 320.09 230.39 319.99 216.19
  L 320.01 192.54
  Z
  M 359.58 349.30
  A 0.61 0.61 0.0 0 0 360.14 349.30
  L 411.10 322.66
  A 0.61 0.61 0.0 0 0 411.10 321.58
  L 333.70 279.56
  A 0.61 0.61 0.0 0 0 333.12 279.55
  L 281.46 307.11
  A 0.61 0.61 0.0 0 0 281.46 308.19
  L 359.58 349.30
  Z
  M 456.25 323.64
  Q 461.51 326.54 466.84 329.17
  C 469.12 330.30 471.35 330.49 473.56 329.12
  Q 479.63 325.33 486.34 321.68
  Q 488.72 320.39 490.95 318.59
  A 0.77 0.77 0.0 0 0 490.89 317.34
  C 486.96 314.81 482.66 313.34 478.78 310.91
  C 475.67 308.97 467.26 303.48 463.75 305.37
  Q 454.34 310.42 446.32 315.45
  A 1.47 1.46 -41.7 0 0 446.18 317.84
  Q 447.10 318.57 447.94 319.04
  Q 452.22 321.43 456.25 323.64
  Z
  M 344.79 420.95
  Q 346.54 419.51 349.03 418.02
  Q 350.04 417.42 350.32 416.55
  Q 350.58 415.74 349.84 415.34
  Q 339.11 409.60 327.84 403.59
  Q 325.21 402.19 322.66 403.45
  Q 319.44 405.05 316.51 407.18
  A 1.02 1.02 0.0 0 0 316.63 408.91
  Q 326.51 414.09 336.67 419.57
  Q 337.85 420.20 338.80 420.99
  C 340.10 422.07 341.39 422.18 342.99 421.89
  Q 343.85 421.73 344.79 420.95
  Z"
/>
<rect fill="#fd989c" x="-15.04" y="-1.87" transform="translate(435.57,199.97) rotate(25.3)" width="30.08" height="3.74" rx="1.84"/>
<path fill="#26b1f2" d="
  M 408.87 210.26
  Q 408.71 210.66 408.74 211.09
  Q 408.77 211.43 408.96 211.70
  Q 418.84 225.81 428.67 239.74
  Q 429.27 240.59 430.25 240.24
  Q 447.44 234.12 464.68 228.15
  Q 465.10 228.00 465.28 227.75
  Q 465.48 227.46 465.58 227.06
  L 465.83 227.12
  Q 465.85 227.13 465.85 227.15
  C 466.43 232.41 466.12 237.56 466.19 242.84
  Q 466.60 271.70 465.83 300.41
  Q 462.08 301.95 459.05 300.43
  Q 429.15 285.46 399.44 270.59
  A 4.46 4.46 0.0 0 1 396.97 266.60
  L 396.99 233.10
  L 397.04 199.09
  Q 397.56 197.67 398.40 196.93
  Q 398.60 196.75 398.63 196.49
  Q 398.65 196.27 398.65 196.24
  Q 398.53 195.35 398.88 196.17
  Q 400.11 199.10 401.23 200.73
  Q 404.37 205.26 407.20 209.66
  Q 407.46 210.08 407.95 210.14
  L 408.87 210.26
  Z"
/>
<rect fill="#c1cefa" x="-13.49" y="-1.73" transform="translate(433.16,209.00) rotate(24.1)" width="26.98" height="3.46" rx="1.70"/>
<rect fill="#c1cefa" x="-13.50" y="-1.71" transform="translate(431.76,216.13) rotate(24.3)" width="27.00" height="3.42" rx="1.67"/>
<path fill="#2a9de9" d="
  M 465.76 214.85
  Q 468.60 219.32 471.50 222.97
  Q 472.61 224.37 472.68 226.13
  Q 472.97 232.71 473.01 239.99
  L 472.99 270.53
  Q 472.97 283.15 472.89 295.75
  C 472.88 297.28 471.75 298.70 470.22 299.26
  Q 467.87 300.12 465.83 300.41
  Q 466.60 271.70 466.19 242.84
  C 466.12 237.56 466.43 232.41 465.85 227.15
  Q 465.85 227.13 465.83 227.12
  L 465.58 227.06
  L 465.76 214.85
  Z"
/>
<rect fill="#c1cefa" x="-13.26" y="-1.60" transform="translate(430.62,223.31) rotate(23.9)" width="26.52" height="3.20" rx="1.56"/>
<path fill="#f0edfd" d="
  M 153.89 235.77
  L 153.99 259.93
  Q 153.39 260.63 153.64 261.98
  Q 153.66 262.13 153.52 262.13
  Q 153.45 262.14 153.39 262.10
  Q 153.26 262.02 153.33 261.87
  Q 153.86 260.79 151.79 260.29
  A 2.88 2.87 38.5 0 0 149.85 260.51
  Q 140.02 265.39 130.06 270.74
  Q 127.98 271.86 125.71 273.01
  Q 111.71 280.11 98.31 287.08
  Q 96.68 287.92 95.26 288.33
  Q 93.85 288.73 92.94 289.88
  A 1.03 1.02 32.7 0 0 93.28 291.43
  C 103.44 296.58 113.53 302.20 123.78 307.38
  C 128.12 309.56 132.15 311.89 136.41 314.03
  Q 149.09 320.41 161.32 327.22
  Q 166.34 330.01 171.08 332.24
  C 175.57 334.35 179.70 336.99 184.03 339.19
  Q 195.21 344.87 206.22 350.85
  Q 207.13 351.35 209.23 351.80
  Q 211.08 352.20 212.09 353.44
  L 193.79 363.96
  A 0.59 0.59 0.0 0 0 193.83 365.01
  L 198.08 367.07
  Q 197.04 369.09 194.63 370.40
  A 1.13 1.12 -45.3 0 0 194.64 372.38
  Q 206.88 378.90 219.54 385.54
  Q 221.31 386.46 223.12 387.43
  Q 232.39 392.36 242.95 397.92
  Q 244.54 398.76 245.97 399.75
  Q 247.57 400.87 249.01 401.59
  Q 257.66 405.94 266.28 410.36
  Q 266.35 410.39 270.80 412.48
  Q 274.51 414.23 278.07 416.48
  Q 279.70 417.51 281.71 417.69
  Q 283.38 417.84 285.28 416.77
  Q 297.00 410.19 308.43 403.35
  Q 310.88 406.08 313.33 407.08
  A 1.02 1.02 0.0 0 1 313.42 408.92
  L 304.69 413.64
  A 1.36 1.36 0.0 0 0 304.73 416.05
  Q 316.22 421.80 326.79 428.23
  Q 329.10 429.63 331.94 427.88
  Q 336.04 425.35 340.10 422.76
  Q 342.32 421.34 344.29 423.17
  Q 346.85 425.54 349.93 423.94
  Q 393.61 401.37 437.20 379.18
  Q 442.31 376.57 447.36 373.79
  C 451.87 371.29 456.35 369.26 461.01 366.84
  Q 474.81 359.66 489.33 352.23
  Q 497.42 348.08 505.79 343.77
  Q 527.33 332.66 551.34 320.60
  Q 552.84 319.85 554.01 318.60
  Q 555.02 317.53 553.79 316.72
  C 550.32 314.42 546.44 312.86 542.75 310.92
  Q 510.09 293.77 477.45 276.58
  Q 476.40 276.03 475.04 274.46
  Q 475.00 274.41 473.94 273.52
  Q 472.90 272.65 472.99 270.53
  L 473.01 239.99
  Q 479.65 243.48 486.53 247.13
  Q 539.80 275.39 586.17 299.59
  C 586.65 299.84 586.93 300.26 587.33 300.62
  A 0.87 0.86 52.4 0 1 587.15 302.03
  L 556.73 317.68
  A 0.42 0.42 0.0 0 0 556.72 318.42
  Q 565.45 323.17 574.53 327.93
  Q 574.91 328.13 575.19 328.45
  A 1.50 1.50 0.0 0 1 574.74 330.76
  Q 505.02 366.71 441.79 399.05
  C 407.82 416.42 374.02 434.20 339.91 451.37
  C 336.48 453.09 333.88 451.81 330.76 450.17
  Q 194.64 379.09 61.97 309.00
  Q 60.00 307.96 61.36 306.19
  Q 61.73 305.69 63.35 304.86
  Q 73.53 299.61 84.52 293.83
  Q 87.20 292.42 90.05 291.62
  A 1.22 1.22 0.0 0 0 90.94 290.35
  Q 90.86 289.44 90.00 289.05
  Q 80.20 284.65 72.26 280.38
  A 1.68 1.68 0.0 0 1 72.31 277.39
  Q 76.99 275.09 82.79 272.08
  Q 113.79 255.97 140.25 242.53
  C 144.09 240.58 147.64 237.47 152.16 236.78
  A 1.53 1.50 -66.0 0 0 152.82 236.52
  L 153.89 235.77
  Z"
/>
<path fill="#dbd7fd" d="
  M 611.31 249.24
  L 631.92 259.75
  A 0.97 0.97 0.0 0 1 632.22 261.24
  Q 631.69 261.87 630.99 262.21
  Q 623.43 265.86 617.52 269.53
  Q 614.53 271.38 611.42 269.88
  Q 600.98 264.81 591.68 259.78
  A 1.39 1.36 83.5 0 1 591.25 259.43
  Q 590.16 258.10 591.48 257.44
  Q 599.72 253.24 607.23 249.27
  A 4.45 4.44 44.5 0 1 611.31 249.24
  Z"
/>
<path fill="#5863fe" d="
  M 223.58 300.33
  Q 204.20 310.12 184.15 319.98
  Q 171.20 326.34 159.73 318.83
  Q 153.83 314.97 153.88 307.25
  Q 153.98 290.35 154.05 273.46
  Q 154.33 264.04 154.53 254.62
  Q 154.53 254.50 154.63 254.46
  Q 154.68 254.44 154.72 254.48
  Q 154.76 254.51 154.77 254.56
  Q 154.80 254.77 154.83 254.99
  Q 154.97 255.92 155.11 254.98
  L 155.21 254.34
  Q 155.32 253.57 155.87 254.12
  Q 157.07 255.32 158.44 254.76
  Q 158.77 254.63 158.98 254.91
  Q 159.83 256.00 160.93 256.54
  Q 161.87 257.00 162.55 257.61
  Q 163.49 258.44 164.34 259.29
  Q 165.28 260.23 166.72 260.88
  Q 168.67 261.76 170.31 262.72
  Q 170.76 262.98 171.08 263.38
  Q 171.33 263.70 171.71 263.82
  Q 174.23 264.66 175.81 266.63
  Q 176.65 267.67 177.91 268.29
  Q 179.17 268.91 180.02 269.93
  C 181.53 271.72 183.91 272.19 185.64 273.76
  Q 188.11 276.00 191.05 277.29
  Q 193.64 278.43 194.46 279.08
  Q 199.51 283.14 203.77 286.12
  Q 211.60 291.60 213.31 292.86
  Q 218.46 296.64 223.58 300.33
  Z"
/>
<path fill="#f6f6fe" d="
  M 359.58 349.30
  L 281.46 308.19
  A 0.61 0.61 0.0 0 1 281.46 307.11
  L 333.12 279.55
  A 0.61 0.61 0.0 0 1 333.70 279.56
  L 411.10 321.58
  A 0.61 0.61 0.0 0 1 411.10 322.66
  L 360.14 349.30
  A 0.61 0.61 0.0 0 1 359.58 349.30
  Z
  M 340.33 290.50
  Q 337.53 288.12 334.10 289.79
  Q 318.43 297.45 303.02 305.32
  Q 299.90 306.92 301.88 309.81
  Q 302.00 309.99 302.18 310.12
  Q 305.13 312.29 308.45 310.62
  Q 324.45 302.59 339.46 295.35
  Q 342.69 293.79 340.65 290.85
  Q 340.51 290.65 340.33 290.50
  Z
  M 349.2873 298.0564
  A 1.05 1.05 0.0 0 0 347.8614 297.6421
  L 315.2277 315.5826
  A 1.05 1.05 0.0 0 0 314.8134 317.0086
  L 314.8327 317.0436
  A 1.05 1.05 0.0 0 0 316.2586 317.4579
  L 348.8923 299.5174
  A 1.05 1.05 0.0 0 0 349.3066 298.0914
  L 349.2873 298.0564
  Z
  M 355.3221 300.8752
  A 1.09 1.09 0.0 0 0 353.8410 300.4477
  L 320.9061 318.6288
  A 1.09 1.09 0.0 0 0 320.4786 320.1098
  L 320.4979 320.1448
  A 1.09 1.09 0.0 0 0 321.9790 320.5723
  L 354.9139 302.3912
  A 1.09 1.09 0.0 0 0 355.3414 300.9102
  L 355.3221 300.8752
  Z
  M 361.3596 304.3155
  A 1.00 1.00 0.0 0 0 360.0008 303.9233
  L 326.8733 322.2107
  A 1.00 1.00 0.0 0 0 326.4811 323.5695
  L 326.5004 323.6045
  A 1.00 1.00 0.0 0 0 327.8592 323.9967
  L 360.9867 305.7093
  A 1.00 1.00 0.0 0 0 361.3789 304.3505
  L 361.3596 304.3155
  Z
  M 377.48 330.60
  A 0.49 0.49 0.0 0 0 377.90 330.60
  L 395.78 322.38
  A 0.49 0.49 0.0 0 0 395.79 321.49
  L 374.49 311.48
  A 0.49 0.49 0.0 0 0 374.07 311.48
  L 356.83 319.89
  A 0.49 0.49 0.0 0 0 356.84 320.78
  L 377.48 330.60
  Z
  M 356.9391 324.4996
  A 0.84 0.84 0.0 0 0 355.8025 324.1543
  L 345.9580 329.4108
  A 0.84 0.84 0.0 0 0 345.6126 330.5474
  L 345.6409 330.6004
  A 0.84 0.84 0.0 0 0 346.7775 330.9457
  L 356.6220 325.6892
  A 0.84 0.84 0.0 0 0 356.9674 324.5526
  L 356.9391 324.4996
  Z
  M 346.48 336.40
  L 363.34 327.17
  A 0.04 0.04 0.0 0 0 363.36 327.11
  L 363.33 327.07
  A 1.93 1.83 -28.7 0 0 360.76 326.39
  L 347.22 333.81
  A 1.93 1.83 -28.7 0 0 346.40 336.34
  L 346.43 336.38
  A 0.04 0.04 0.0 0 0 346.48 336.40
  Z
  M 368.1338 328.6281
  A 0.97 0.97 0.0 0 0 366.8165 328.2454
  L 352.1296 336.3196
  A 0.97 0.97 0.0 0 0 351.7469 337.6369
  L 351.7662 337.6719
  A 0.97 0.97 0.0 0 0 353.0835 338.0546
  L 367.7704 329.9804
  A 0.97 0.97 0.0 0 0 368.1531 328.6631
  L 368.1338 328.6281
  Z
  M 374.1774 331.0910
  A 1.01 1.01 0.0 0 0 372.8079 330.6853
  L 358.1492 338.6443
  A 1.01 1.01 0.0 0 0 357.7435 340.0139
  L 357.7626 340.0490
  A 1.01 1.01 0.0 0 0 359.1321 340.4547
  L 373.7908 332.4957
  A 1.01 1.01 0.0 0 0 374.1965 331.1261
  L 374.1774 331.0910
  Z"
/>
<path fill="#c1cefa" d="
  M 340.33 290.50
  Q 340.51 290.65 340.65 290.85
  Q 342.69 293.79 339.46 295.35
  Q 324.45 302.59 308.45 310.62
  Q 305.13 312.29 302.18 310.12
  Q 302.00 309.99 301.88 309.81
  Q 299.90 306.92 303.02 305.32
  Q 318.43 297.45 334.10 289.79
  Q 337.53 288.12 340.33 290.50
  Z"
/>
<rect fill="#c1cefa" x="-19.67" y="-1.07" transform="translate(332.06,307.55) rotate(-28.8)" width="39.34" height="2.14" rx="1.05"/>
<rect fill="#c1cefa" x="-19.90" y="-1.11" transform="translate(337.91,310.51) rotate(-28.9)" width="39.80" height="2.22" rx="1.09"/>
<rect fill="#c1cefa" x="-19.92" y="-1.02" transform="translate(343.93,313.96) rotate(-28.9)" width="39.84" height="2.04" rx="1.00"/>
<path fill="#dbd7fd" d="
  M 456.25 323.64
  Q 452.22 321.43 447.94 319.04
  Q 447.10 318.57 446.18 317.84
  A 1.47 1.46 -41.7 0 1 446.32 315.45
  Q 454.34 310.42 463.75 305.37
  C 467.26 303.48 475.67 308.97 478.78 310.91
  C 482.66 313.34 486.96 314.81 490.89 317.34
  A 0.77 0.77 0.0 0 1 490.95 318.59
  Q 488.72 320.39 486.34 321.68
  Q 479.63 325.33 473.56 329.12
  C 471.35 330.49 469.12 330.30 466.84 329.17
  Q 461.51 326.54 456.25 323.64
  Z"
/>
<path fill="#c1cefa" d="
  M 377.48 330.60
  L 356.84 320.78
  A 0.49 0.49 0.0 0 1 356.83 319.89
  L 374.07 311.48
  A 0.49 0.49 0.0 0 1 374.49 311.48
  L 395.79 321.49
  A 0.49 0.49 0.0 0 1 395.78 322.38
  L 377.90 330.60
  A 0.49 0.49 0.0 0 1 377.48 330.60
  Z"
/>
<rect fill="#c1cefa" x="-6.42" y="-0.87" transform="translate(351.29,327.55) rotate(-28.1)" width="12.84" height="1.74" rx="0.84"/>
<path fill="#c1cefa" d="
  M 346.48 336.40
  A 0.04 0.04 0.0 0 1 346.43 336.38
  L 346.40 336.34
  A 1.93 1.83 -28.7 0 1 347.22 333.81
  L 360.76 326.39
  A 1.93 1.83 -28.7 0 1 363.33 327.07
  L 363.36 327.11
  A 0.04 0.04 0.0 0 1 363.34 327.17
  L 346.48 336.40
  Z"
/>
<path fill="#fe8ebe" d="
  M 283.24 339.09
  Q 283.90 340.44 285.59 341.32
  Q 286.20 341.63 285.68 342.08
  Q 284.32 343.25 285.07 345.12
  Q 285.52 346.23 285.73 347.52
  Q 286.13 350.00 286.54 352.26
  Q 286.64 352.83 287.09 353.19
  Q 287.61 353.61 287.66 354.25
  A 0.46 0.45 77.5 0 0 288.28 354.65
  Q 292.75 352.85 295.48 355.90
  Q 298.44 359.19 294.44 361.46
  Q 280.90 369.12 265.88 377.68
  C 264.95 378.21 264.65 379.08 263.66 379.41
  Q 263.06 379.61 263.60 379.93
  Q 264.74 380.62 264.30 381.97
  Q 264.15 382.45 264.33 382.91
  Q 264.86 384.26 264.81 385.74
  Q 264.77 387.00 264.91 388.26
  Q 265.06 389.58 264.92 390.82
  Q 264.73 392.53 265.12 394.15
  Q 265.71 396.55 266.53 398.57
  Q 267.06 399.90 268.23 400.80
  A 0.25 0.25 0.0 0 1 268.27 401.16
  Q 268.18 401.27 268.13 401.40
  Q 267.90 402.03 268.54 401.84
  Q 269.06 401.68 269.29 402.17
  A 1.04 1.02 -11.8 0 0 270.19 402.75
  Q 270.88 402.78 271.18 403.40
  A 0.43 0.43 0.0 0 0 271.61 403.64
  Q 272.96 403.48 272.96 404.90
  Q 272.96 405.15 273.18 405.03
  Q 273.30 404.96 273.35 404.85
  Q 273.50 404.47 273.90 404.47
  Q 275.76 404.48 276.30 406.08
  Q 276.46 406.56 276.94 406.70
  Q 278.13 407.05 279.16 407.69
  Q 279.74 408.05 279.06 408.16
  Q 277.68 408.39 277.10 407.39
  A 0.59 0.59 0.0 0 0 276.47 407.12
  Q 275.97 407.22 275.54 406.97
  Q 275.29 406.82 275.38 406.55
  Q 275.40 406.49 275.40 406.43
  Q 275.39 405.91 274.93 406.17
  Q 274.82 406.24 274.76 406.36
  Q 274.63 406.64 274.34 406.53
  Q 272.61 405.90 271.43 404.60
  Q 271.05 404.18 270.53 404.38
  Q 269.77 404.66 269.49 403.93
  Q 269.33 403.49 268.89 403.33
  L 263.74 401.45
  L 198.08 367.07
  L 193.83 365.01
  A 0.59 0.59 0.0 0 1 193.79 363.96
  L 212.09 353.44
  L 257.74 327.00
  A 2.89 2.89 0.0 0 1 260.57 326.95
  L 283.24 339.09
  Z"
/>
<rect fill="#c1cefa" x="-9.35" y="-0.99" transform="translate(359.95,333.15) rotate(-28.8)" width="18.70" height="1.98" rx="0.97"/>
<rect fill="#c1cefa" x="-9.35" y="-1.03" transform="translate(365.97,335.57) rotate(-28.5)" width="18.70" height="2.06" rx="1.01"/>
<path fill="#fd92ad" d="
  M 283.24 339.09
  L 305.76 351.23
  L 306.39 355.80
  A 1.33 1.31 -72.0 0 0 306.78 356.58
  C 307.55 357.34 307.83 358.52 307.47 359.56
  Q 307.24 360.21 307.45 360.86
  Q 308.06 362.71 308.01 364.78
  Q 308.00 365.17 308.32 365.38
  L 309.13 365.90
  A 0.05 0.05 0.0 0 1 309.12 365.99
  Q 308.92 366.07 308.78 366.21
  Q 308.48 366.51 308.80 366.79
  Q 308.96 366.92 309.21 366.83
  Q 291.50 377.04 272.46 387.83
  Q 269.12 389.72 271.75 393.17
  Q 271.93 393.42 272.22 393.59
  Q 276.34 396.02 279.76 394.10
  Q 293.33 386.48 304.92 379.88
  Q 304.63 380.62 305.14 381.13
  Q 305.50 381.49 305.94 381.16
  Q 306.21 380.96 306.03 381.25
  Q 306.01 381.30 306.03 381.35
  Q 306.18 381.73 305.77 381.80
  Q 305.51 381.85 305.27 381.94
  Q 304.71 382.15 304.90 382.72
  Q 305.15 383.48 304.93 384.21
  Q 304.83 384.54 304.97 384.86
  Q 305.22 385.43 304.97 385.97
  Q 304.80 386.34 304.99 386.70
  Q 305.78 388.21 305.18 389.86
  Q 305.00 390.35 305.14 390.86
  L 306.12 394.28
  Q 306.26 394.77 306.74 394.94
  Q 307.36 395.17 307.12 395.81
  A 0.60 0.59 20.4 0 0 307.48 396.58
  Q 307.77 396.70 308.25 396.61
  L 283.73 410.49
  A 2.89 2.88 44.0 0 1 280.94 410.53
  L 263.74 401.45
  L 268.89 403.33
  Q 269.33 403.49 269.49 403.93
  Q 269.77 404.66 270.53 404.38
  Q 271.05 404.18 271.43 404.60
  Q 272.61 405.90 274.34 406.53
  Q 274.63 406.64 274.76 406.36
  Q 274.82 406.24 274.93 406.17
  Q 275.39 405.91 275.40 406.43
  Q 275.40 406.49 275.38 406.55
  Q 275.29 406.82 275.54 406.97
  Q 275.97 407.22 276.47 407.12
  A 0.59 0.59 0.0 0 1 277.10 407.39
  Q 277.68 408.39 279.06 408.16
  Q 279.74 408.05 279.16 407.69
  Q 278.13 407.05 276.94 406.70
  Q 276.46 406.56 276.30 406.08
  Q 275.76 404.48 273.90 404.47
  Q 273.50 404.47 273.35 404.85
  Q 273.30 404.96 273.18 405.03
  Q 272.96 405.15 272.96 404.90
  Q 272.96 403.48 271.61 403.64
  A 0.43 0.43 0.0 0 1 271.18 403.40
  Q 270.88 402.78 270.19 402.75
  A 1.04 1.02 -11.8 0 1 269.29 402.17
  Q 269.06 401.68 268.54 401.84
  Q 267.90 402.03 268.13 401.40
  Q 268.18 401.27 268.27 401.16
  A 0.25 0.25 0.0 0 0 268.23 400.80
  Q 267.06 399.90 266.53 398.57
  Q 265.71 396.55 265.12 394.15
  Q 264.73 392.53 264.92 390.82
  Q 265.06 389.58 264.91 388.26
  Q 264.77 387.00 264.81 385.74
  Q 264.86 384.26 264.33 382.91
  Q 264.15 382.45 264.30 381.97
  Q 264.74 380.62 263.60 379.93
  Q 263.06 379.61 263.66 379.41
  C 264.65 379.08 264.95 378.21 265.88 377.68
  Q 280.90 369.12 294.44 361.46
  Q 298.44 359.19 295.48 355.90
  Q 292.75 352.85 288.28 354.65
  A 0.46 0.45 77.5 0 1 287.66 354.25
  Q 287.61 353.61 287.09 353.19
  Q 286.64 352.83 286.54 352.26
  Q 286.13 350.00 285.73 347.52
  Q 285.52 346.23 285.07 345.12
  Q 284.32 343.25 285.68 342.08
  Q 286.20 341.63 285.59 341.32
  Q 283.90 340.44 283.24 339.09
  Z"
/>
<path fill="#fd989c" d="
  M 305.76 351.23
  L 347.07 373.59
  A 0.59 0.59 0.0 0 1 347.07 374.63
  L 343.19 376.68
  L 308.25 396.61
  Q 307.77 396.70 307.48 396.58
  A 0.60 0.59 20.4 0 1 307.12 395.81
  Q 307.36 395.17 306.74 394.94
  Q 306.26 394.77 306.12 394.28
  L 305.14 390.86
  Q 305.00 390.35 305.18 389.86
  Q 305.78 388.21 304.99 386.70
  Q 304.80 386.34 304.97 385.97
  Q 305.22 385.43 304.97 384.86
  Q 304.83 384.54 304.93 384.21
  Q 305.15 383.48 304.90 382.72
  Q 304.71 382.15 305.27 381.94
  Q 305.51 381.85 305.77 381.80
  Q 306.18 381.73 306.03 381.35
  Q 306.01 381.30 306.03 381.25
  Q 306.21 380.96 305.94 381.16
  Q 305.50 381.49 305.14 381.13
  Q 304.63 380.62 304.92 379.88
  Q 310.46 376.70 316.04 373.56
  Q 319.40 371.67 317.67 368.85
  Q 314.89 364.30 309.21 366.83
  Q 308.96 366.92 308.80 366.79
  Q 308.48 366.51 308.78 366.21
  Q 308.92 366.07 309.12 365.99
  A 0.05 0.05 0.0 0 0 309.13 365.90
  L 308.32 365.38
  Q 308.00 365.17 308.01 364.78
  Q 308.06 362.71 307.45 360.86
  Q 307.24 360.21 307.47 359.56
  C 307.83 358.52 307.55 357.34 306.78 356.58
  A 1.33 1.31 -72.0 0 1 306.39 355.80
  L 305.76 351.23
  Z"
/>
<path fill="#f3d7eb" d="
  M 304.92 379.88
  Q 293.33 386.48 279.76 394.10
  Q 276.34 396.02 272.22 393.59
  Q 271.93 393.42 271.75 393.17
  Q 269.12 389.72 272.46 387.83
  Q 291.50 377.04 309.21 366.83
  Q 314.89 364.30 317.67 368.85
  Q 319.40 371.67 316.04 373.56
  Q 310.46 376.70 304.92 379.88
  Z"
/>
<path fill="#f3d7eb" d="
  M 198.08 367.07
  L 263.74 401.45
  L 280.94 410.53
  A 2.89 2.88 44.0 0 0 283.73 410.49
  L 308.25 396.61
  L 343.19 376.68
  C 342.69 378.78 344.80 379.40 346.08 380.35
  A 1.20 1.19 -41.1 0 1 345.94 382.36
  Q 331.43 390.35 317.18 398.93
  Q 314.57 400.50 308.43 403.35
  Q 297.00 410.19 285.28 416.77
  Q 283.38 417.84 281.71 417.69
  Q 279.70 417.51 278.07 416.48
  Q 274.51 414.23 270.80 412.48
  Q 266.35 410.39 266.28 410.36
  Q 257.66 405.94 249.01 401.59
  Q 247.57 400.87 245.97 399.75
  Q 244.54 398.76 242.95 397.92
  Q 232.39 392.36 223.12 387.43
  Q 221.31 386.46 219.54 385.54
  Q 206.88 378.90 194.64 372.38
  A 1.13 1.12 -45.3 0 1 194.63 370.40
  Q 197.04 369.09 198.08 367.07
  Z"
/>
<path fill="#ccc4ff" d="
  M 646.00 379.91
  L 646.00 440.16
  Q 625.74 430.67 605.83 420.65
  Q 604.55 420.00 605.79 418.76
  A 1.72 1.45 4.7 0 1 606.21 418.46
  L 622.08 410.85
  A 0.74 0.74 0.0 0 0 622.10 409.53
  Q 613.98 405.19 605.73 401.41
  Q 605.21 401.17 604.98 400.65
  A 0.67 0.67 0.0 0 1 605.30 399.78
  L 646.00 379.91
  Z"
/>
<path fill="#dbd7fd" d="
  M 342.99 421.89
  C 341.39 422.18 340.10 422.07 338.80 420.99
  Q 337.85 420.20 336.67 419.57
  Q 326.51 414.09 316.63 408.91
  A 1.02 1.02 0.0 0 1 316.51 407.18
  Q 319.44 405.05 322.66 403.45
  Q 325.21 402.19 327.84 403.59
  Q 339.11 409.60 349.84 415.34
  Q 350.58 415.74 350.32 416.55
  Q 350.04 417.42 349.03 418.02
  Q 346.54 419.51 344.79 420.95
  Q 343.85 421.73 342.99 421.89
  Z"
/>
<path fill="#f0edfd" d="
  M 11.82 458.40
  A 0.65 0.62 -82.3 0 1 11.50 457.96
  Q 11.21 456.64 12.34 455.98
  Q 19.73 451.67 27.09 447.45
  Q 32.45 444.38 37.93 442.64
  C 39.35 442.18 41.28 442.63 42.60 443.30
  Q 56.62 450.45 71.07 458.00
  A 1.28 1.28 0.0 0 1 71.09 460.26
  Q 61.23 465.68 49.26 471.97
  C 46.11 473.63 43.30 474.44 39.97 472.62
  C 33.23 468.95 26.31 465.76 19.76 462.18
  C 17.15 460.75 14.40 459.83 11.82 458.40
  Z"
/>
<path fill="#f0edfd" d="
  M 496.14 487.34
  C 498.55 488.62 501.06 489.72 503.14 491.55
  Q 503.82 492.15 503.04 492.61
  Q 494.83 497.49 485.97 502.27
  C 483.48 503.62 480.89 503.13 478.56 501.90
  Q 468.18 496.40 456.91 490.52
  A 1.06 1.05 43.8 0 1 456.87 488.67
  Q 465.82 483.52 474.94 478.73
  Q 477.30 477.49 479.44 478.59
  Q 487.52 482.75 496.14 487.34
  Z"
/>
</svg>
