<?xml version="1.0" encoding="UTF-8" standalone="no"?>
<!DOCTYPE svg PUBLIC "-//W3C//DTD SVG 1.1//EN" "http://www.w3.org/Graphics/SVG/1.1/DTD/svg11.dtd">
<svg xmlns="http://www.w3.org/2000/svg" version="1.1" viewBox="0.00 0.00 512.00 512.00">
<g stroke-width="2.00" fill="none" stroke-linecap="butt">
<path stroke="#9ca2ad" vector-effect="non-scaling-stroke" d="
  M 256.03 0.00
  L 256.04 151.01"
/>
<path stroke="#9ca2ad" vector-effect="non-scaling-stroke" d="
  M 256.01 361.01
  L 256.01 512.00"
/>
</g>
<path fill="#a1a7b3" d="
  M 225.39 0.00
  L 256.03 0.00
  L 256.04 151.01
  Q 218.24 151.46 189.52 174.89
  Q 181.61 181.35 175.48 188.79
  Q 151.25 218.16 151.08 256.11
  C 150.95 284.17 162.66 311.33 182.18 330.58
  Q 212.32 360.31 256.01 361.01
  L 256.01 512.00
  L 225.26 512.00
  Q 214.11 510.48 211.63 500.59
  Q 204.30 471.42 197.02 442.34
  A 0.91 0.91 0.0 0 0 196.43 441.70
  Q 180.00 436.30 165.10 428.35
  A 0.95 0.94 -46.2 0 0 164.19 428.37
  Q 144.44 440.05 123.29 452.78
  C 118.23 455.83 112.95 457.65 107.30 455.26
  Q 104.19 453.95 101.47 451.22
  Q 80.83 430.54 61.63 411.46
  C 57.59 407.45 54.94 402.67 55.85 396.92
  Q 56.42 393.39 59.32 388.56
  Q 71.07 369.06 83.60 348.17
  A 1.02 1.01 -42.8 0 0 83.64 347.19
  Q 75.62 331.58 70.32 315.63
  Q 70.14 315.10 69.60 314.96
  Q 40.46 307.68 11.42 300.37
  Q 1.44 297.86 0.00 286.62
  L 0.00 225.26
  Q 1.52 214.13 11.43 211.63
  Q 40.40 204.33 69.49 197.08
  A 1.16 1.15 2.2 0 0 70.32 196.32
  Q 75.08 182.07 81.82 168.71
  A 1.00 0.99 -47.0 0 0 81.79 167.75
  Q 69.07 146.34 54.99 123.26
  Q 51.35 117.29 50.75 113.57
  Q 49.59 106.47 55.54 100.44
  Q 76.38 79.34 96.71 58.97
  Q 102.17 53.51 109.41 54.23
  Q 113.16 54.61 119.90 58.72
  Q 140.53 71.27 162.76 84.54
  A 0.52 0.50 47.8 0 0 163.25 84.57
  C 170.54 81.07 178.06 77.03 185.86 74.17
  Q 191.25 72.20 196.41 70.20
  Q 196.94 70.00 197.07 69.46
  Q 204.34 40.42 211.63 11.42
  Q 214.14 1.44 225.39 0.00
  Z"
/>
<path fill="#979ca7" d="
  M 256.03 0.00
  L 288.01 0.00
  Q 298.22 2.16 300.85 12.64
  Q 307.86 40.48 315.11 69.48
  Q 315.24 70.00 315.74 70.17
  Q 331.47 75.48 346.30 83.02
  A 1.57 1.56 42.5 0 0 347.80 82.96
  Q 367.79 71.02 389.52 57.94
  Q 393.31 55.66 396.82 54.49
  Q 401.16 53.05 406.52 55.17
  Q 409.41 56.31 413.59 60.57
  Q 431.02 78.30 450.60 97.82
  Q 455.57 102.76 456.94 106.58
  Q 459.39 113.41 455.12 120.58
  Q 442.90 141.07 429.12 164.04
  Q 428.58 164.93 429.06 165.85
  Q 436.72 180.60 441.82 196.24
  Q 441.99 196.76 442.52 196.90
  Q 471.53 204.13 500.74 211.50
  Q 510.02 213.85 512.00 224.12
  L 512.00 288.00
  Q 509.92 298.18 500.74 300.50
  Q 471.66 307.83 442.53 315.11
  Q 442.01 315.24 441.84 315.74
  Q 436.47 331.79 429.16 345.99
  Q 428.92 346.46 429.19 346.92
  Q 440.75 366.21 453.75 387.52
  Q 456.39 391.84 457.49 395.72
  Q 458.61 399.66 456.59 404.97
  Q 455.34 408.26 450.58 413.01
  Q 430.34 433.17 412.25 451.22
  Q 406.01 457.44 398.63 456.34
  Q 394.65 455.74 388.34 451.92
  Q 367.96 439.57 348.75 428.32
  Q 348.34 428.08 347.91 428.28
  Q 342.62 430.81 337.85 433.13
  C 330.86 436.54 323.19 439.19 315.70 441.89
  A 0.94 0.93 87.1 0 0 315.11 442.55
  Q 307.82 471.65 300.50 500.75
  Q 298.16 510.02 287.88 512.00
  L 256.01 512.00
  L 256.01 361.01
  Q 268.36 360.34 275.74 358.99
  Q 285.48 357.20 296.36 352.70
  Q 305.59 348.88 313.72 343.40
  Q 346.20 321.47 357.02 283.88
  Q 358.87 277.45 359.87 269.69
  Q 360.91 261.59 360.81 255.58
  Q 360.65 245.49 359.01 236.50
  Q 357.51 228.27 354.28 219.60
  Q 351.09 211.06 346.87 203.88
  Q 327.30 170.59 290.90 157.14
  C 286.52 155.53 281.92 154.54 277.37 153.32
  C 275.53 152.83 273.69 152.95 271.83 152.49
  Q 269.78 151.98 267.64 151.85
  Q 262.19 151.53 256.04 151.01
  L 256.03 0.00
  Z"
/>
</svg>
