<svg xmlns="http://www.w3.org/2000/svg" xmlns:xlink="http://www.w3.org/1999/xlink" width="800" zoomAndPan="magnify" viewBox="0 0 600 1499.999933" height="2000" preserveAspectRatio="xMidYMid meet" version="1.0"><defs><clipPath id="490c450406"><path d="M 36 103.5625 L 538 103.5625 L 538 642.8125 L 36 642.8125 Z M 36 103.5625 " clip-rule="nonzero"/></clipPath></defs><path fill="#ffffff" d="M 369.550781 325.667969 L 356.476562 325.667969 L 356.476562 295.980469 C 356.476562 259.890625 327.117188 230.542969 291.039062 230.542969 C 254.960938 230.542969 225.601562 259.898438 225.601562 295.980469 L 225.601562 325.667969 L 210.5625 325.667969 C 209.066406 325.667969 207.5625 325.828125 206.105469 326.136719 C 196.402344 328.21875 189.359375 336.925781 189.359375 346.859375 L 189.359375 431.792969 C 189.359375 448.804688 193.640625 463.285156 202.066406 474.8125 C 208.308594 483.359375 216.863281 490.328125 227.503906 495.535156 C 243.5625 503.394531 264.613281 507.382812 290.0625 507.382812 C 319.699219 507.382812 343.265625 502.007812 360.097656 491.386719 C 380.449219 478.550781 390.761719 458.507812 390.761719 431.800781 L 390.761719 346.867188 C 390.753906 335.179688 381.238281 325.667969 369.550781 325.667969 Z M 247.320312 295.980469 C 247.320312 271.875 266.925781 252.261719 291.027344 252.261719 C 315.132812 252.261719 334.738281 271.875 334.738281 295.980469 L 334.738281 325.667969 L 247.308594 325.667969 L 247.308594 295.980469 Z M 377.25 431.792969 C 377.25 472.988281 347.910156 493.878906 290.050781 493.878906 C 266.675781 493.878906 247.621094 490.359375 233.429688 483.410156 C 224.773438 479.179688 217.890625 473.605469 212.957031 466.84375 C 206.253906 457.671875 202.855469 445.875 202.855469 431.78125 L 202.855469 346.847656 C 202.855469 343.25 205.40625 340.078125 208.925781 339.320312 C 209.464844 339.199219 210.015625 339.148438 210.550781 339.148438 L 369.550781 339.148438 C 373.800781 339.148438 377.257812 342.601562 377.257812 346.847656 L 377.257812 431.792969 Z M 377.25 431.792969 " fill-opacity="1" fill-rule="nonzero"/><path fill="#ffffff" d="M 297.929688 412.753906 C 298.199219 412.304688 298.410156 411.828125 298.539062 411.328125 L 305.558594 384.304688 C 306.207031 381.8125 304.632812 379.765625 302.046875 379.765625 L 280.007812 379.765625 C 277.425781 379.765625 275.851562 381.8125 276.5 384.304688 L 283.519531 411.328125 C 283.648438 411.828125 283.859375 412.304688 284.128906 412.753906 C 279.449219 415.226562 276.269531 420.144531 276.269531 425.800781 C 276.269531 433.945312 282.882812 440.558594 291.027344 440.558594 C 299.175781 440.558594 305.789062 433.945312 305.789062 425.800781 C 305.789062 420.144531 302.605469 415.238281 297.929688 412.753906 Z M 297.929688 412.753906 " fill-opacity="1" fill-rule="nonzero"/><g clip-path="url(#490c450406)"><path fill="#ffffff" d="M 535.929688 242.957031 C 532.9375 207.566406 527.691406 184.96875 527.472656 184.03125 L 525.398438 175.226562 L 517.011719 178.625 C 516.664062 178.765625 481.589844 192.765625 436.285156 191.6875 C 375.941406 190.253906 327.515625 163.886719 292.335938 113.316406 L 285.5625 103.5625 L 279.371094 113.707031 C 249.464844 162.660156 202.855469 188.507812 140.824219 190.542969 C 93.757812 192.078125 55.015625 178.636719 54.636719 178.496094 L 46.289062 175.535156 L 44.464844 184.210938 C 44.273438 185.117188 39.777344 206.765625 37.742188 240.960938 C 35.867188 272.464844 35.847656 320.949219 46.429688 373.085938 C 58.363281 431.933594 81.082031 483.320312 113.929688 525.8125 C 155.035156 578.964844 212.089844 618.144531 283.507812 642.246094 L 285.761719 643.007812 L 288.046875 642.378906 C 362.378906 621.882812 421.277344 584.90625 463.101562 532.484375 C 496.527344 490.578125 519.085938 438.871094 530.136719 378.800781 C 539.917969 325.628906 538.691406 275.578125 535.929688 242.957031 Z M 514.808594 376.445312 C 490.703125 506.65625 413.796875 590.871094 286.210938 626.78125 C 163.332031 584.589844 87.804688 498.367188 61.707031 370.492188 C 51.402344 320.023438 51.382812 272.972656 53.179688 242.386719 C 54.414062 221.367188 56.648438 205.023438 58.136719 195.796875 C 72.707031 199.917969 104.027344 207.175781 140.835938 206.050781 C 170.375 205.140625 197.277344 198.96875 220.804688 187.710938 C 247.082031 175.136719 269.089844 156.207031 286.351562 131.355469 C 306.027344 156.886719 329.582031 176.253906 356.515625 188.996094 C 380.570312 200.375 407.285156 206.496094 435.917969 207.175781 C 471.117188 208.023438 500.21875 200.484375 514.097656 196.046875 C 515.894531 205.609375 518.6875 222.742188 520.523438 244.742188 C 523.175781 276.433594 524.332031 325 514.808594 376.445312 Z M 514.808594 376.445312 " fill-opacity="1" fill-rule="nonzero"/></g><path fill="#ffffff" d="M 505.941406 215.753906 L 505.164062 210.347656 L 499.847656 211.59375 C 480.351562 216.171875 460.65625 218.496094 441.300781 218.496094 C 399.726562 218.496094 339.824219 207.277344 290.550781 153.804688 L 286.75 149.6875 L 283.089844 153.925781 C 247.191406 195.457031 195.355469 217.417969 133.15625 217.417969 C 113.402344 217.417969 93.097656 215.242188 72.816406 210.957031 L 67.449219 209.820312 L 66.820312 215.273438 C 65.734375 224.648438 64.90625 234.351562 64.359375 244.113281 C 62.664062 274.050781 62.78125 320.0625 72.953125 369.265625 C 84.203125 423.746094 105.285156 471.144531 135.621094 510.136719 C 153.519531 533.152344 174.941406 553.515625 199.261719 570.65625 C 224.335938 588.328125 253.183594 603.058594 285.015625 614.445312 L 286.550781 614.992188 L 288.117188 614.535156 C 321.203125 604.761719 351.0625 591.347656 376.859375 574.675781 C 401.800781 558.550781 423.609375 538.953125 441.699219 516.425781 C 472.367188 478.222656 493.1875 430.765625 503.578125 375.367188 C 512.984375 325.21875 511.945312 277.730469 509.414062 246.714844 C 508.542969 236.234375 507.386719 225.824219 505.941406 215.753906 Z M 493.746094 373.523438 C 483.664062 427.285156 463.519531 473.257812 433.890625 510.164062 C 416.480469 531.855469 395.457031 550.730469 371.425781 566.277344 C 346.84375 582.175781 318.394531 595.019531 286.851562 604.484375 C 256.476562 593.484375 228.960938 579.363281 205.039062 562.5 C 181.523438 545.914062 160.820312 526.238281 143.527344 504 C 114.140625 466.226562 93.695312 420.214844 82.746094 367.242188 C 72.792969 319.09375 72.683594 274.011719 74.351562 244.671875 C 74.789062 236.972656 75.398438 229.316406 76.175781 221.835938 C 95.34375 225.546875 114.488281 227.417969 133.195312 227.417969 C 165.785156 227.417969 195.734375 221.714844 222.199219 210.457031 C 247.011719 199.917969 268.78125 184.5 287 164.59375 C 337.988281 217.277344 398.808594 228.496094 441.320312 228.496094 C 459.671875 228.496094 478.300781 226.492188 496.796875 222.535156 C 497.875 230.722656 498.773438 239.109375 499.460938 247.523438 C 501.921875 277.929688 502.941406 324.460938 493.746094 373.523438 Z M 493.746094 373.523438 " fill-opacity="1" fill-rule="nonzero"/></svg>