<svg xmlns="http://www.w3.org/2000/svg" xmlns:xlink="http://www.w3.org/1999/xlink" width="800" zoomAndPan="magnify" viewBox="0 0 600 1499.999933" height="2000" preserveAspectRatio="xMidYMid meet" version="1.0"><defs><clipPath id="92a5df3d25"><path d="M 180 214.828125 L 419 214.828125 L 419 471.328125 L 180 471.328125 Z M 180 214.828125 " clip-rule="nonzero"/></clipPath></defs><path fill="#ffffff" d="M 338.855469 320.5625 L 332.628906 320.5625 L 332.628906 306.429688 C 332.628906 289.25 318.652344 275.277344 301.476562 275.277344 C 284.300781 275.277344 270.324219 289.253906 270.324219 306.429688 L 270.324219 320.5625 L 263.164062 320.5625 C 262.453125 320.5625 261.734375 320.640625 261.042969 320.785156 C 256.421875 321.777344 253.070312 325.921875 253.070312 330.652344 L 253.070312 371.085938 C 253.070312 379.1875 255.109375 386.078125 259.121094 391.566406 C 262.089844 395.636719 266.164062 398.953125 271.230469 401.433594 C 278.875 405.175781 288.894531 407.074219 301.011719 407.074219 C 315.121094 407.074219 326.339844 404.515625 334.351562 399.457031 C 344.042969 393.347656 348.953125 383.804688 348.953125 371.089844 L 348.953125 330.65625 C 348.945312 325.09375 344.417969 320.5625 338.855469 320.5625 Z M 280.664062 306.429688 C 280.664062 294.957031 289.996094 285.617188 301.472656 285.617188 C 312.945312 285.617188 322.28125 294.957031 322.28125 306.429688 L 322.28125 320.5625 L 280.660156 320.5625 L 280.660156 306.429688 Z M 342.519531 371.085938 C 342.519531 390.699219 328.550781 400.644531 301.007812 400.644531 C 289.878906 400.644531 280.804688 398.96875 274.050781 395.660156 C 269.929688 393.648438 266.652344 390.992188 264.304688 387.773438 C 261.113281 383.40625 259.496094 377.789062 259.496094 371.082031 L 259.496094 330.648438 C 259.496094 328.933594 260.710938 327.425781 262.386719 327.0625 C 262.640625 327.007812 262.902344 326.984375 263.160156 326.984375 L 338.855469 326.984375 C 340.875 326.984375 342.523438 328.625 342.523438 330.648438 L 342.523438 371.085938 Z M 342.519531 371.085938 " fill-opacity="1" fill-rule="nonzero"/><path fill="#ffffff" d="M 304.757812 362.023438 C 304.886719 361.808594 304.984375 361.582031 305.046875 361.34375 L 308.390625 348.480469 C 308.699219 347.292969 307.949219 346.320312 306.71875 346.320312 L 296.226562 346.320312 C 294.996094 346.320312 294.246094 347.292969 294.554688 348.480469 L 297.898438 361.34375 C 297.957031 361.582031 298.058594 361.808594 298.1875 362.023438 C 295.960938 363.203125 294.445312 365.542969 294.445312 368.234375 C 294.445312 372.113281 297.59375 375.261719 301.472656 375.261719 C 305.351562 375.261719 308.496094 372.113281 308.496094 368.234375 C 308.496094 365.542969 306.984375 363.207031 304.757812 362.023438 Z M 304.757812 362.023438 " fill-opacity="1" fill-rule="nonzero"/><g clip-path="url(#92a5df3d25)"><path fill="#ffffff" d="M 418.0625 281.1875 C 416.636719 264.339844 414.140625 253.582031 414.035156 253.136719 L 413.046875 248.941406 L 409.054688 250.5625 C 408.890625 250.628906 392.191406 257.292969 370.625 256.78125 C 341.898438 256.097656 318.84375 243.546875 302.09375 219.46875 L 298.871094 214.828125 L 295.921875 219.65625 C 281.683594 242.960938 259.496094 255.265625 229.964844 256.234375 C 207.554688 256.964844 189.113281 250.566406 188.933594 250.5 L 184.957031 249.089844 L 184.089844 253.21875 C 184 253.652344 181.859375 263.960938 180.890625 280.238281 C 179.996094 295.234375 179.988281 318.316406 185.023438 343.136719 C 190.707031 371.152344 201.523438 395.617188 217.160156 415.847656 C 236.730469 441.152344 263.890625 459.804688 297.890625 471.277344 L 298.964844 471.640625 L 300.050781 471.339844 C 335.441406 461.582031 363.480469 443.980469 383.390625 419.023438 C 399.304688 399.074219 410.042969 374.457031 415.304688 345.859375 C 419.960938 320.542969 419.375 296.71875 418.0625 281.1875 Z M 408.007812 344.738281 C 396.53125 406.726562 359.917969 446.820312 299.179688 463.914062 C 240.679688 443.828125 204.722656 402.78125 192.296875 341.902344 C 187.394531 317.875 187.382812 295.476562 188.238281 280.917969 C 188.828125 270.910156 189.890625 263.128906 190.597656 258.738281 C 197.535156 260.699219 212.445312 264.152344 229.96875 263.617188 C 244.03125 263.183594 256.839844 260.246094 268.039062 254.886719 C 280.550781 248.898438 291.027344 239.890625 299.246094 228.058594 C 308.613281 240.210938 319.824219 249.433594 332.648438 255.5 C 344.101562 260.917969 356.816406 263.832031 370.449219 264.152344 C 387.207031 264.558594 401.058594 260.96875 407.667969 258.855469 C 408.523438 263.410156 409.851562 271.566406 410.726562 282.039062 C 411.988281 297.125 412.539062 320.246094 408.007812 344.738281 Z M 408.007812 344.738281 " fill-opacity="1" fill-rule="nonzero"/></g><path fill="#ffffff" d="M 403.785156 268.238281 L 403.414062 265.664062 L 400.882812 266.257812 C 391.601562 268.4375 382.226562 269.542969 373.011719 269.542969 C 353.21875 269.542969 324.703125 264.203125 301.242188 238.746094 L 299.433594 236.785156 L 297.691406 238.800781 C 280.601562 258.574219 255.925781 269.03125 226.3125 269.03125 C 216.910156 269.03125 207.242188 267.996094 197.585938 265.953125 L 195.03125 265.410156 L 194.734375 268.007812 C 194.214844 272.472656 193.820312 277.089844 193.5625 281.738281 C 192.753906 295.992188 192.8125 317.894531 197.652344 341.320312 C 203.007812 367.253906 213.042969 389.820312 227.488281 408.382812 C 236.007812 419.339844 246.207031 429.035156 257.785156 437.195312 C 269.71875 445.609375 283.453125 452.621094 298.609375 458.042969 L 299.339844 458.304688 L 300.085938 458.085938 C 315.835938 453.433594 330.050781 447.046875 342.332031 439.109375 C 354.207031 431.433594 364.589844 422.105469 373.203125 411.378906 C 387.800781 393.191406 397.714844 370.597656 402.660156 344.226562 C 407.136719 320.351562 406.644531 297.742188 405.4375 282.976562 C 405.023438 277.988281 404.472656 273.03125 403.785156 268.238281 Z M 397.980469 343.347656 C 393.179688 368.941406 383.589844 390.828125 369.484375 408.398438 C 361.195312 418.722656 351.1875 427.710938 339.746094 435.113281 C 328.042969 442.679688 314.5 448.792969 299.484375 453.300781 C 285.023438 448.0625 271.921875 441.339844 260.535156 433.3125 C 249.339844 425.417969 239.484375 416.050781 231.25 405.464844 C 217.261719 387.480469 207.527344 365.574219 202.316406 340.355469 C 197.578125 317.433594 197.523438 295.972656 198.316406 282.003906 C 198.527344 278.339844 198.816406 274.695312 199.1875 271.132812 C 208.3125 272.898438 217.425781 273.792969 226.332031 273.792969 C 241.847656 273.792969 256.105469 271.074219 268.703125 265.714844 C 280.515625 260.699219 290.878906 253.359375 299.554688 243.882812 C 323.828125 268.964844 352.78125 274.304688 373.019531 274.304688 C 381.757812 274.304688 390.625 273.351562 399.433594 271.464844 C 399.945312 275.363281 400.371094 279.355469 400.699219 283.363281 C 401.871094 297.835938 402.355469 319.988281 397.980469 343.347656 Z M 397.980469 343.347656 " fill-opacity="1" fill-rule="nonzero"/></svg>